<?xml version="1.0" encoding="UTF-8" standalone="no"?><!DOCTYPE svg PUBLIC "-//W3C//DTD SVG 1.1//EN" "http://www.w3.org/Graphics/SVG/1.1/DTD/svg11.dtd"><svg width="100%" height="100%" viewBox="0 0 400 215" version="1.1" xmlns="http://www.w3.org/2000/svg" xmlns:xlink="http://www.w3.org/1999/xlink" xml:space="preserve" xmlns:serif="http://www.serif.com/" style="fill-rule:evenodd;clip-rule:evenodd;stroke-linecap:round;stroke-linejoin:round;stroke-miterlimit:1.5;"><rect id="david" x="0" y="0" width="400" height="215" style="fill:none;"/><rect x="0" y="0" width="400" height="215" style="fill:#435423;"/><g id="Crown"><path d="M215.679,93.327c-10.236,-2.175 -22.183,1.022 -36.52,0.33c-12.476,0.804 -23.692,2.312 -32.799,4.328l-24.04,-62.985l29.68,42l10,-37l15,34l14.886,-31.335l16.228,0l14.886,31.335l15,-34l10,37l29.68,-42l-24.04,62.985c-10.289,-2.277 -23.27,-3.907 -37.72,-4.606l-0.241,-0.052Z" style="fill:#d9ae00;stroke:#000;stroke-width:1px;"/><path d="M228.605,92.332l4.395,9.668l6.123,-8.414l38.557,-58.586l0,75c0,10.486 -34.807,19 -77.68,19c-42.873,0 -77.68,-8.514 -77.68,-19l0,-75l38.557,58.586l6.123,8.414l4.395,-9.668l28.605,-69.332l28.605,69.332Zm-39.605,-27.543c0,-0.209 0.083,-0.41 0.231,-0.558c0.148,-0.148 0.349,-0.231 0.558,-0.231c1.41,0 4.366,0 6.022,0c0.316,0 0.618,-0.125 0.841,-0.348c0.223,-0.223 0.348,-0.525 0.348,-0.841c0,-1.825 0,-5.279 0,-6.912c0,-0.496 0.403,-0.899 0.899,-0.899c1.155,0 3.145,0 4.267,0c0.221,0 0.433,0.088 0.59,0.244c0.156,0.157 0.244,0.369 0.244,0.59c0,1.556 0,4.917 0,6.806c0,0.751 0.609,1.36 1.36,1.36c1.597,0 4.206,0 5.632,0c0.557,0 1.008,0.451 1.008,1.008c0,0.779 0,1.863 0,2.704c0,0.342 -0.136,0.669 -0.377,0.911c-0.242,0.241 -0.569,0.377 -0.911,0.377c-1.575,0 -4.211,0 -5.667,0c-0.577,0 -1.045,0.468 -1.045,1.045c0,3.741 0,16.435 0,20.011c0,0.521 -0.423,0.944 -0.944,0.944c-1.227,0 -3.337,0 -4.401,0c-0.174,0 -0.34,-0.069 -0.463,-0.192c-0.123,-0.123 -0.192,-0.289 -0.192,-0.463c0,-3.154 0,-16.775 0,-20.436c0,-0.502 -0.407,-0.909 -0.909,-0.909c-1.545,0 -4.666,0 -6.199,0c-0.237,0 -0.464,-0.094 -0.631,-0.261c-0.167,-0.167 -0.261,-0.394 -0.261,-0.631c0,-0.943 0,-2.416 0,-3.319Z" style="fill:#ffdf00;stroke:#000;stroke-width:1px;"/></g><path d="M268.211,141.469l9.469,-1.281l-7.344,34.562c-0.104,0.354 -0.177,0.682 -0.219,0.984c-0.041,0.302 -0.062,0.599 -0.062,0.891c0,0.729 0.187,1.339 0.562,1.828c0.375,0.49 1.063,0.734 2.063,0.734c0.604,0 1.041,-0.041 1.312,-0.125c0.271,-0.083 0.521,-0.177 0.75,-0.281c-0.083,1.146 -0.338,2.13 -0.765,2.953c-0.428,0.823 -0.964,1.506 -1.61,2.047c-0.646,0.542 -1.375,0.943 -2.187,1.203c-0.813,0.261 -1.636,0.391 -2.469,0.391c-0.813,0 -1.583,-0.099 -2.313,-0.297c-0.729,-0.198 -1.385,-0.51 -1.968,-0.937c-0.584,-0.427 -1.078,-0.98 -1.485,-1.657c-0.406,-0.677 -0.703,-1.484 -0.89,-2.421c-0.5,0.687 -1.052,1.348 -1.657,1.984c-0.604,0.635 -1.281,1.203 -2.031,1.703c-0.75,0.5 -1.573,0.896 -2.469,1.188c-0.895,0.291 -1.875,0.437 -2.937,0.437c-1.104,0 -2.167,-0.177 -3.188,-0.531c-1.02,-0.354 -1.927,-0.938 -2.718,-1.75c-0.792,-0.813 -1.427,-1.875 -1.907,-3.188c-0.479,-1.312 -0.718,-2.916 -0.718,-4.812c0,-1.459 0.146,-3.021 0.437,-4.688c0.292,-1.666 0.74,-3.333 1.344,-5c0.604,-1.666 1.359,-3.265 2.266,-4.797c0.906,-1.531 1.968,-2.885 3.187,-4.062c1.219,-1.177 2.599,-2.115 4.141,-2.813c1.541,-0.698 3.239,-1.047 5.093,-1.047c1.813,0 3.131,0.313 3.954,0.938c0.822,0.625 1.234,1.396 1.234,2.313l0,0.25l3.125,-14.719Zm-6.844,32.062l3.125,-14.656c-0.041,-0.188 -0.109,-0.406 -0.203,-0.656c-0.094,-0.25 -0.234,-0.495 -0.422,-0.735c-0.187,-0.239 -0.443,-0.437 -0.765,-0.593c-0.323,-0.157 -0.735,-0.235 -1.235,-0.235c-0.896,0 -1.745,0.292 -2.547,0.875c-0.802,0.584 -1.536,1.36 -2.203,2.328c-0.666,0.969 -1.26,2.068 -1.781,3.297c-0.521,1.229 -0.964,2.495 -1.328,3.797c-0.365,1.302 -0.641,2.583 -0.828,3.844c-0.188,1.26 -0.282,2.391 -0.282,3.391c0,1.229 0.115,2.177 0.344,2.843c0.229,0.667 0.505,1.162 0.828,1.485c0.323,0.323 0.672,0.515 1.047,0.578c0.375,0.062 0.709,0.094 1,0.094c0.438,0 0.896,-0.099 1.375,-0.297c0.479,-0.198 0.948,-0.49 1.406,-0.875c0.459,-0.386 0.881,-0.865 1.266,-1.438c0.385,-0.573 0.703,-1.245 0.953,-2.015l0.25,-1.032Z" style="fill:#fff;stroke:#000;stroke-width:1px;stroke-linecap:butt;stroke-miterlimit:1.41421;"/><text x="124.586px" y="185px" style="font-family:'Lobster-Regular', 'Lobster';font-size:64px;fill:#fff;stroke:#000;stroke-width:1px;stroke-linecap:butt;stroke-miterlimit:1.41421;">Davi</text></svg>