<?xml version="1.0" encoding="UTF-8" standalone="no"?><!DOCTYPE svg PUBLIC "-//W3C//DTD SVG 1.1//EN" "http://www.w3.org/Graphics/SVG/1.1/DTD/svg11.dtd"><svg width="100%" height="100%" viewBox="0 0 500 500" version="1.1" xmlns="http://www.w3.org/2000/svg" xmlns:xlink="http://www.w3.org/1999/xlink" xml:space="preserve" xmlns:serif="http://www.serif.com/" style="fill-rule:evenodd;clip-rule:evenodd;stroke-linecap:round;stroke-linejoin:round;stroke-miterlimit:1.5;"><rect id="david" x="0" y="0" width="500" height="500" style="fill:none;"/><clipPath id="_clip1"><rect x="0" y="0" width="500" height="500"/></clipPath><g clip-path="url(#_clip1)"><g id="Crown"><path d="M299.665,222.773c-32.422,-6.889 -70.269,3.239 -115.681,1.045c-39.522,2.547 -75.052,7.326 -103.9,13.713l-76.149,-199.519l94.016,133.043l31.677,-117.204l47.515,107.701l47.155,-99.258l51.404,0l47.155,99.258l47.515,-107.701l31.677,117.204l94.016,-133.043l-76.149,199.519c-32.592,-7.216 -73.714,-12.379 -119.486,-14.592l-0.765,-0.166Z" style="fill:#d9ae00;stroke:#000;stroke-width:1px;"/><path d="M340.613,219.622l13.921,30.625l19.396,-26.654l122.135,-185.581l0,237.577c0,33.218 -110.258,60.186 -246.065,60.186c-135.807,0 -246.065,-26.968 -246.065,-60.186l0,-237.577l122.135,185.581l19.396,26.654l13.921,-30.625l90.613,-219.622l90.613,219.622Zm-125.458,-87.246c0,-0.663 0.264,-1.299 0.733,-1.768c0.469,-0.469 1.105,-0.733 1.768,-0.733c4.464,0 13.83,0 19.076,0c0.999,0 1.956,-0.396 2.662,-1.102c0.706,-0.707 1.103,-1.664 1.103,-2.663c0,-5.782 0,-16.722 0,-21.896c0,-1.573 1.275,-2.848 2.848,-2.848c3.659,0 9.961,0 13.517,0c0.7,0 1.372,0.278 1.867,0.774c0.496,0.495 0.774,1.167 0.774,1.867c0,4.93 0,15.575 0,21.559c0,2.38 1.929,4.309 4.309,4.309c5.057,0 13.324,0 17.84,0c1.763,0 3.193,1.43 3.193,3.193c0,2.467 0,5.9 0,8.567c0,1.082 -0.43,2.119 -1.195,2.884c-0.765,0.765 -1.802,1.195 -2.884,1.195c-4.99,0 -13.341,0 -17.953,0c-1.828,0 -3.31,1.482 -3.31,3.31c0,11.852 0,52.062 0,63.388c0,1.652 -1.339,2.991 -2.991,2.991c-3.885,0 -10.569,0 -13.941,0c-0.55,0 -1.077,-0.219 -1.466,-0.608c-0.39,-0.389 -0.608,-0.916 -0.608,-1.467c0,-9.99 0,-53.139 0,-64.736c0,-1.589 -1.289,-2.878 -2.879,-2.878c-4.894,0 -14.779,0 -19.638,0c-0.749,0 -1.467,-0.298 -1.997,-0.828c-0.53,-0.53 -0.828,-1.248 -0.828,-1.997c0,-2.988 0,-7.655 0,-10.513Z" style="fill:#ffdf00;stroke:#000;stroke-width:1px;"/></g><path d="M466.071,359.434l29.994,-4.059l-23.263,109.483c-0.33,1.122 -0.561,2.162 -0.693,3.119c-0.132,0.957 -0.197,1.897 -0.197,2.821c0,2.31 0.593,4.24 1.781,5.791c1.188,1.551 3.366,2.326 6.534,2.326c1.914,0 3.299,-0.132 4.157,-0.396c0.858,-0.264 1.65,-0.561 2.376,-0.891c-0.264,3.63 -1.072,6.748 -2.425,9.355c-1.353,2.607 -3.052,4.768 -5.098,6.484c-2.046,1.715 -4.356,2.986 -6.93,3.811c-2.573,0.825 -5.18,1.237 -7.82,1.237c-2.574,0 -5.015,-0.313 -7.325,-0.94c-2.31,-0.627 -4.389,-1.617 -6.236,-2.97c-1.848,-1.353 -3.416,-3.102 -4.702,-5.246c-1.287,-2.145 -2.228,-4.702 -2.822,-7.672c-1.584,2.178 -3.332,4.273 -5.246,6.286c-1.914,2.012 -4.059,3.811 -6.435,5.395c-2.375,1.583 -4.982,2.837 -7.82,3.761c-2.838,0.924 -5.939,1.386 -9.305,1.386c-3.498,0 -6.863,-0.561 -10.097,-1.683c-3.234,-1.122 -6.104,-2.969 -8.612,-5.543c-2.508,-2.574 -4.521,-5.94 -6.038,-10.097c-1.518,-4.158 -2.277,-9.239 -2.277,-15.245c0,-4.619 0.462,-9.569 1.386,-14.848c0.924,-5.28 2.342,-10.559 4.256,-15.839c1.914,-5.279 4.306,-10.344 7.177,-15.195c2.871,-4.85 6.236,-9.14 10.097,-12.868c3.861,-3.729 8.233,-6.699 13.116,-8.91c4.884,-2.21 10.262,-3.316 16.136,-3.316c5.741,0 9.915,0.99 12.522,2.97c2.607,1.98 3.91,4.422 3.91,7.325l0,0.792l9.899,-46.624Zm-21.679,101.564l9.899,-46.427c-0.132,-0.594 -0.346,-1.287 -0.643,-2.078c-0.297,-0.792 -0.743,-1.568 -1.337,-2.327c-0.594,-0.759 -1.402,-1.386 -2.425,-1.881c-1.023,-0.494 -2.326,-0.742 -3.91,-0.742c-2.838,0 -5.527,0.924 -8.068,2.772c-2.54,1.848 -4.867,4.306 -6.978,7.375c-2.112,3.068 -3.993,6.549 -5.643,10.443c-1.65,3.894 -3.052,7.903 -4.207,12.027c-1.155,4.125 -2.029,8.184 -2.623,12.176c-0.594,3.993 -0.891,7.573 -0.891,10.741c0,3.893 0.363,6.896 1.089,9.008c0.726,2.112 1.6,3.679 2.623,4.702c1.023,1.023 2.128,1.633 3.316,1.831c1.188,0.198 2.244,0.297 3.168,0.297c1.386,0 2.838,-0.313 4.355,-0.94c1.518,-0.627 3.003,-1.551 4.455,-2.772c1.452,-1.221 2.788,-2.739 4.009,-4.554c1.221,-1.814 2.227,-3.943 3.019,-6.384l0.792,-3.267Z" style="fill:#fff;stroke:#000;stroke-width:1px;stroke-linecap:butt;stroke-miterlimit:1.41421;"/><text x="11.112px" y="497.327px" style="font-family:'Lobster-Regular', 'Lobster';font-size:202.732px;fill:#fff;stroke:#000;stroke-width:1px;stroke-linecap:butt;stroke-miterlimit:1.41421;">Davi</text></g></svg>