<?xml version="1.0" encoding="UTF-8" standalone="no"?><!DOCTYPE svg PUBLIC "-//W3C//DTD SVG 1.1//EN" "http://www.w3.org/Graphics/SVG/1.1/DTD/svg11.dtd"><svg width="100%" height="100%" viewBox="0 0 500 500" version="1.1" xmlns="http://www.w3.org/2000/svg" xmlns:xlink="http://www.w3.org/1999/xlink" xml:space="preserve" xmlns:serif="http://www.serif.com/" style="fill-rule:evenodd;clip-rule:evenodd;stroke-linecap:round;stroke-linejoin:round;stroke-miterlimit:1.5;"><rect id="easter" x="0" y="0" width="500" height="500" style="fill:none;"/><clipPath id="_clip1"><rect x="0" y="0" width="500" height="500"/></clipPath><g clip-path="url(#_clip1)"><g><g id="Crown"><path d="M262.152,54.508c-7.933,-1.686 -17.193,0.792 -28.305,0.256c-9.67,0.623 -18.363,1.792 -25.422,3.355l-18.632,-48.818l23.004,32.553l7.75,-28.678l11.626,26.352l11.538,-24.286l12.578,0l11.538,24.286l11.626,-26.352l7.75,28.678l23.004,-32.553l-18.632,48.818c-7.975,-1.766 -18.036,-3.029 -29.236,-3.57l-0.187,-0.041Z" style="fill:#d9ae00;stroke:#000;stroke-width:1px;"/><path d="M272.171,53.737l3.406,7.493l4.746,-6.521l29.884,-45.408l0,58.13c0,8.128 -26.978,14.726 -60.207,14.726c-33.229,0 -60.207,-6.598 -60.207,-14.726l0,-58.13l29.884,45.408l4.746,6.521l3.406,-7.493l22.171,-53.737l22.171,53.737Zm-30.697,-21.347c0,-0.163 0.065,-0.318 0.179,-0.433c0.115,-0.115 0.271,-0.179 0.433,-0.179c1.092,0 3.384,0 4.668,0c0.244,0 0.478,-0.097 0.651,-0.27c0.173,-0.173 0.27,-0.407 0.27,-0.651c0,-1.415 0,-4.092 0,-5.358c0,-0.385 0.312,-0.697 0.697,-0.697c0.895,0 2.437,0 3.307,0c0.171,0 0.336,0.068 0.457,0.189c0.121,0.122 0.189,0.286 0.189,0.457c0,1.207 0,3.811 0,5.275c0,0.583 0.472,1.055 1.055,1.055c1.237,0 3.26,0 4.365,0c0.431,0 0.781,0.349 0.781,0.781c0,0.604 0,1.444 0,2.096c0,0.265 -0.105,0.519 -0.293,0.706c-0.187,0.187 -0.441,0.292 -0.705,0.292c-1.221,0 -3.265,0 -4.393,0c-0.447,0 -0.81,0.363 -0.81,0.81c0,2.9 0,12.739 0,15.51c0,0.404 -0.327,0.732 -0.732,0.732c-0.95,0 -2.586,0 -3.411,0c-0.134,0 -0.263,-0.054 -0.359,-0.149c-0.095,-0.095 -0.148,-0.224 -0.148,-0.359c0,-2.445 0,-13.002 0,-15.84c0,-0.389 -0.316,-0.704 -0.704,-0.704c-1.198,0 -3.617,0 -4.806,0c-0.183,0 -0.359,-0.073 -0.488,-0.202c-0.13,-0.13 -0.203,-0.306 -0.203,-0.489c0,-0.731 0,-1.873 0,-2.572Z" style="fill:#ffdf00;stroke:#000;stroke-width:1px;"/></g><g><rect x="234.304" y="91.034" width="31.391" height="273.102" style="fill:#6b3e00;stroke:#000;stroke-width:1px;"/><path d="M172.087,144.399l0,31.391l155.826,0l0,-31.391l-155.826,0Z" style="fill:#6b3e00;stroke:#000;stroke-width:1px;"/></g></g><text x="7.553px" y="496.37px" style="font-family:'Lobster-Regular', 'Lobster';font-size:200.902px;fill:#fff;stroke:#000;stroke-width:1px;stroke-linecap:butt;stroke-miterlimit:1.41421;">Easter</text></g></svg>