<?xml version="1.0" encoding="UTF-8" standalone="no"?><!DOCTYPE svg PUBLIC "-//W3C//DTD SVG 1.1//EN" "http://www.w3.org/Graphics/SVG/1.1/DTD/svg11.dtd"><svg width="100%" height="100%" viewBox="0 0 400 215" version="1.1" xmlns="http://www.w3.org/2000/svg" xmlns:xlink="http://www.w3.org/1999/xlink" xml:space="preserve" xmlns:serif="http://www.serif.com/" style="fill-rule:evenodd;clip-rule:evenodd;stroke-linecap:round;stroke-linejoin:round;stroke-miterlimit:1.5;"><rect id="easter" x="0" y="0" width="400" height="215" style="fill:none;"/><rect x="0" y="0" width="400" height="215" style="fill:#5879d4;"/><g><g id="Crown"><path d="M203.871,35.364c-2.527,-0.537 -5.477,0.253 -9.017,0.082c-3.08,0.198 -5.85,0.571 -8.098,1.068l-5.936,-15.551l7.328,10.37l2.47,-9.136l3.703,8.395l3.676,-7.736l4.006,0l3.676,7.736l3.703,-8.395l2.47,9.136l7.328,-10.37l-5.936,15.551c-2.54,-0.562 -5.745,-0.964 -9.313,-1.137l-0.06,-0.013Z" style="fill:#d9ae00;stroke:#000;stroke-width:1px;"/><path d="M207.063,35.119l1.085,2.387l1.512,-2.078l9.52,-14.465l0,18.518c0,2.589 -8.594,4.691 -19.18,4.691c-10.586,0 -19.18,-2.102 -19.18,-4.691l0,-18.518l9.52,14.465l1.512,2.078l1.085,-2.387l7.063,-17.119l7.063,17.119Zm-9.779,-6.801c0,-0.052 0.021,-0.101 0.057,-0.138c0.037,-0.036 0.086,-0.057 0.138,-0.057c0.348,0 1.078,0 1.487,0c0.078,0 0.152,-0.031 0.207,-0.086c0.055,-0.055 0.086,-0.129 0.086,-0.207c0,-0.451 0,-1.304 0,-1.707c0,-0.123 0.1,-0.222 0.222,-0.222c0.285,0 0.777,0 1.054,0c0.054,0 0.107,0.022 0.145,0.06c0.039,0.039 0.061,0.091 0.061,0.146c0,0.384 0,1.214 0,1.68c0,0.186 0.15,0.336 0.336,0.336c0.394,0 1.038,0 1.39,0c0.138,0 0.249,0.112 0.249,0.249c0,0.192 0,0.46 0,0.668c0,0.084 -0.034,0.165 -0.093,0.225c-0.06,0.059 -0.141,0.093 -0.225,0.093c-0.389,0 -1.04,0 -1.399,0c-0.143,0 -0.258,0.115 -0.258,0.258c0,0.924 0,4.058 0,4.941c0,0.128 -0.105,0.233 -0.233,0.233c-0.303,0 -0.824,0 -1.087,0c-0.043,0 -0.084,-0.017 -0.114,-0.048c-0.031,-0.03 -0.048,-0.071 -0.048,-0.114c0,-0.779 0,-4.142 0,-5.046c0,-0.124 -0.1,-0.224 -0.224,-0.224c-0.382,0 -1.152,0 -1.531,0c-0.058,0 -0.114,-0.023 -0.155,-0.065c-0.042,-0.041 -0.065,-0.097 -0.065,-0.155c0,-0.233 0,-0.597 0,-0.82Z" style="fill:#ffdf00;stroke:#000;stroke-width:1px;"/></g><g><rect x="195" y="49" width="10" height="87" style="fill:#6b3e00;stroke:#000;stroke-width:1px;"/><path d="M175.18,66l0,10l49.64,0l0,-10l-49.64,0Z" style="fill:#6b3e00;stroke:#000;stroke-width:1px;"/></g></g><text x="122.766px" y="184.125px" style="font-family:'Lobster-Regular', 'Lobster';font-size:64px;fill:#fff;stroke:#000;stroke-width:1px;stroke-linecap:butt;stroke-miterlimit:1.41421;">Easter</text></svg>