<?xml version="1.0" encoding="UTF-8" standalone="no"?><!DOCTYPE svg PUBLIC "-//W3C//DTD SVG 1.1//EN" "http://www.w3.org/Graphics/SVG/1.1/DTD/svg11.dtd"><svg width="100%" height="100%" viewBox="0 0 500 500" version="1.1" xmlns="http://www.w3.org/2000/svg" xmlns:xlink="http://www.w3.org/1999/xlink" xml:space="preserve" xmlns:serif="http://www.serif.com/" style="fill-rule:evenodd;clip-rule:evenodd;stroke-linejoin:round;stroke-miterlimit:1.41421;"><rect id="ruth" x="0" y="0" width="500" height="500" style="fill:none;"/><clipPath id="_clip1"><rect x="0" y="0" width="500" height="500"/></clipPath><g clip-path="url(#_clip1)"><path d="M333.615,496.581l29.012,-136.07l29.597,-4.005l-10.745,50.208c2.149,-2.344 4.282,-4.232 6.398,-5.665c2.117,-1.433 4.184,-2.54 6.203,-3.321c2.019,-0.782 3.923,-1.303 5.714,-1.563c1.791,-0.261 3.468,-0.391 5.031,-0.391c3.191,0 6.154,0.423 8.889,1.27c2.735,0.846 5.096,2.181 7.082,4.005c1.986,1.823 3.533,4.168 4.64,7.033c1.107,2.865 1.66,6.284 1.66,10.256c0,2.67 -0.244,5.552 -0.732,8.645c-0.489,3.093 -1.091,6.252 -1.808,9.475c-0.716,3.224 -1.481,6.431 -2.295,9.622c-0.814,3.191 -1.579,6.252 -2.296,9.182c-0.716,2.93 -1.318,5.649 -1.807,8.156c-0.488,2.508 -0.732,4.705 -0.732,6.594c0,2.474 0.57,4.493 1.709,6.056c1.14,1.563 3.24,2.344 6.301,2.344c3.191,0 5.405,-0.423 6.642,-1.269c-0.456,3.646 -1.368,6.756 -2.735,9.328c-1.368,2.572 -3.045,4.705 -5.031,6.398c-1.986,1.693 -4.2,2.931 -6.642,3.712c-2.442,0.782 -4.998,1.172 -7.668,1.172c-3.842,0 -7.049,-0.635 -9.622,-1.904c-2.572,-1.27 -4.64,-2.963 -6.202,-5.08c-1.563,-2.116 -2.67,-4.526 -3.322,-7.228c-0.651,-2.703 -0.976,-5.487 -0.976,-8.352c0,-3.386 0.472,-7.342 1.416,-11.868c0.944,-4.526 1.97,-9.166 3.077,-13.92c1.107,-4.754 2.133,-9.345 3.077,-13.773c0.944,-4.428 1.416,-8.238 1.416,-11.429c0,-6.837 -2.409,-10.256 -7.228,-10.256c-1.693,0 -3.272,0.407 -4.738,1.221c-1.465,0.814 -2.832,1.953 -4.102,3.419c-1.27,1.465 -2.426,3.174 -3.468,5.128c-1.042,1.954 -1.954,4.037 -2.735,6.252l-14.164,66.618l-28.816,0Z" style="fill:#fff;stroke:#000;stroke-width:1px;"/><text x="66.75px" y="496.581px" style="font-family:'Lobster-Regular', 'Lobster';font-size:200.051px;fill:#fff;stroke:#000;stroke-width:1px;">Rut</text><path d="M276.796,14.21c58.199,62.263 132.134,90.253 221.084,85.541c-25.783,59.2 -51.347,112.618 -88.084,149.35c-0.824,0.822 -1.63,1.661 -2.419,2.516c-42.178,45.693 -80.813,90.553 -131.784,65.361c-42.979,-21.241 -39.207,-57.866 -41.617,-128.245c-0.139,-3.98 0.045,-7.965 0.551,-11.915c7.666,-58.937 22.519,-112.574 42.269,-162.608Zm86.761,236.714c-13.011,27.572 -42.244,42.938 -67.018,33.623c-24.774,-9.315 -36.64,-40.134 -28.262,-69.449c8.78,12.804 23.485,26.048 41.968,32.998c18.484,6.95 38.272,6.675 53.312,2.828Zm49.775,-59.431c-8.163,0.745 -17.293,0.894 -26.345,-0.754c-9.052,-1.647 -17.544,-5.004 -24.92,-8.577c5.937,-14.156 18.482,-24.243 30.495,-22.057c12.014,2.187 20.2,16.047 20.77,31.388Zm-140.302,-55.82c5.536,6.045 12.187,12.3 19.991,17.175c7.804,4.874 16.343,8.107 24.204,10.429c5.137,-14.466 2.648,-30.37 -7.708,-36.839c-10.357,-6.469 -25.741,-1.728 -36.487,9.235Z" style="fill:#fff;stroke:#000;stroke-width:1px;stroke-linecap:round;stroke-miterlimit:1.5;"/><path d="M2.12,110.277c85.178,-2.889 154.89,-40.173 209.844,-110.277c27.636,58.358 51.061,112.748 54.569,164.58c0.077,1.161 0.178,2.321 0.303,3.477c6.679,61.825 15.061,120.432 -37.439,142.258c-44.268,18.405 -69.375,-8.525 -123.976,-52.998c-3.09,-2.513 -5.97,-5.273 -8.613,-8.252c-39.354,-44.537 -69.988,-91.003 -94.688,-138.788Zm168.272,183.771c-12.187,-27.946 -4.507,-60.065 18.815,-72.58c23.322,-12.514 54.332,-1.155 70.88,24.451c-15.417,-1.821 -35.067,0.528 -52.467,9.864c-17.4,9.337 -30.222,24.412 -37.228,38.265Zm-83.466,-105.23c8.147,0.902 17.272,1.226 26.354,-0.247c9.082,-1.473 17.637,-4.666 25.081,-8.097c-5.665,-14.267 -18.014,-24.594 -30.067,-22.639c-12.054,1.956 -20.505,15.656 -21.368,30.983Zm133.211,-67.005c-4.561,6.81 -10.193,13.998 -17.172,19.993c-6.979,5.996 -14.933,10.48 -22.353,13.962c-7.261,-13.526 -7.2,-29.623 2.063,-37.58c9.262,-7.958 25.185,-5.591 37.462,3.625Z" style="stroke:#fff;stroke-width:1px;stroke-linecap:round;stroke-miterlimit:1.5;"/></g></svg>