<?xml version="1.0" encoding="UTF-8" standalone="no"?><!DOCTYPE svg PUBLIC "-//W3C//DTD SVG 1.1//EN" "http://www.w3.org/Graphics/SVG/1.1/DTD/svg11.dtd"><svg width="100%" height="100%" viewBox="0 0 400 215" version="1.1" xmlns="http://www.w3.org/2000/svg" xmlns:xlink="http://www.w3.org/1999/xlink" xml:space="preserve" xmlns:serif="http://www.serif.com/" style="fill-rule:evenodd;clip-rule:evenodd;stroke-linejoin:round;stroke-miterlimit:1.41421;"><rect id="ruth" x="0" y="0" width="400" height="215" style="fill:none;"/><clipPath id="_clip1"><rect id="ruth1" serif:id="ruth" x="0" y="0" width="400" height="215"/></clipPath><g clip-path="url(#_clip1)"><rect x="0" y="0" width="400" height="215" style="fill:#74264d;"/><path d="M226.75,188l9.281,-43.531l9.469,-1.281l-3.438,16.062c0.688,-0.75 1.37,-1.354 2.047,-1.813c0.677,-0.458 1.339,-0.812 1.985,-1.062c0.646,-0.25 1.255,-0.417 1.828,-0.5c0.573,-0.083 1.109,-0.125 1.609,-0.125c1.021,0 1.969,0.135 2.844,0.406c0.875,0.271 1.63,0.698 2.266,1.281c0.635,0.584 1.13,1.334 1.484,2.25c0.354,0.917 0.531,2.011 0.531,3.282c0,0.854 -0.078,1.776 -0.234,2.765c-0.156,0.99 -0.349,2 -0.578,3.032c-0.229,1.031 -0.474,2.057 -0.735,3.078c-0.26,1.021 -0.505,2 -0.734,2.937c-0.229,0.938 -0.422,1.808 -0.578,2.61c-0.156,0.802 -0.234,1.505 -0.234,2.109c0,0.792 0.182,1.437 0.546,1.937c0.365,0.5 1.037,0.75 2.016,0.75c1.021,0 1.729,-0.135 2.125,-0.406c-0.146,1.167 -0.438,2.162 -0.875,2.985c-0.438,0.823 -0.974,1.505 -1.609,2.046c-0.636,0.542 -1.344,0.938 -2.125,1.188c-0.782,0.25 -1.599,0.375 -2.453,0.375c-1.23,0 -2.256,-0.203 -3.079,-0.609c-0.823,-0.407 -1.484,-0.948 -1.984,-1.625c-0.5,-0.677 -0.854,-1.448 -1.062,-2.313c-0.209,-0.864 -0.313,-1.755 -0.313,-2.672c0,-1.083 0.151,-2.349 0.453,-3.797c0.302,-1.448 0.63,-2.932 0.985,-4.453c0.354,-1.521 0.682,-2.989 0.984,-4.406c0.302,-1.417 0.453,-2.635 0.453,-3.656c0,-2.188 -0.771,-3.282 -2.313,-3.282c-0.541,0 -1.046,0.131 -1.515,0.391c-0.469,0.261 -0.906,0.625 -1.313,1.094c-0.406,0.469 -0.776,1.015 -1.109,1.64c-0.333,0.625 -0.625,1.292 -0.875,2l-4.531,21.313l-9.219,0Z" style="fill:#fff;stroke:#000;stroke-width:1px;"/><text x="141.375px" y="188px" style="font-family:'Lobster-Regular', 'Lobster';font-size:64px;fill:#fff;stroke:#000;stroke-width:1px;">Rut</text><path d="M208.572,33.681c18.619,19.919 42.272,28.873 70.729,27.366c-8.248,18.939 -16.426,36.028 -28.179,47.78c-0.264,0.263 -0.522,0.531 -0.774,0.805c-13.494,14.618 -25.854,28.969 -42.16,20.91c-13.75,-6.796 -12.543,-18.513 -13.314,-41.028c-0.045,-1.273 0.014,-2.548 0.176,-3.812c2.452,-18.855 7.204,-36.014 13.522,-52.021Zm27.757,75.729c-4.163,8.821 -13.515,13.737 -21.44,10.756c-7.926,-2.98 -11.722,-12.839 -9.042,-22.217c2.809,4.096 7.513,8.333 13.427,10.556c5.913,2.223 12.243,2.136 17.055,0.905Zm15.924,-19.013c-2.612,0.238 -5.532,0.286 -8.428,-0.241c-2.896,-0.527 -5.613,-1.601 -7.973,-2.744c1.9,-4.529 5.913,-7.756 9.756,-7.057c3.844,0.7 6.463,5.134 6.645,10.042Zm-44.885,-17.858c1.771,1.934 3.899,3.935 6.395,5.494c2.497,1.56 5.229,2.594 7.743,3.337c1.644,-4.628 0.848,-9.716 -2.466,-11.785c-3.313,-2.07 -8.234,-0.553 -11.672,2.954Z" style="fill:#fff;stroke:#000;stroke-width:1px;stroke-linecap:round;stroke-miterlimit:1.5;"/><path d="M121,67.977c27.25,-0.924 49.552,-12.852 67.133,-35.279c8.841,18.67 16.335,36.07 17.457,52.652c0.025,0.371 0.058,0.742 0.098,1.112c2.136,19.779 4.818,38.528 -11.978,45.511c-14.162,5.888 -22.194,-2.727 -39.662,-16.955c-0.988,-0.804 -1.91,-1.687 -2.756,-2.64c-12.59,-14.248 -22.39,-29.113 -30.292,-44.401Zm53.833,58.792c-3.899,-8.94 -1.442,-19.216 6.019,-23.22c7.462,-4.003 17.382,-0.369 22.676,7.823c-4.932,-0.583 -11.218,0.168 -16.785,3.155c-5.566,2.987 -9.668,7.81 -11.91,12.242Zm-26.702,-33.665c2.606,0.289 5.526,0.392 8.431,-0.079c2.906,-0.471 5.642,-1.493 8.024,-2.59c-1.812,-4.565 -5.763,-7.868 -9.619,-7.243c-3.856,0.626 -6.56,5.009 -6.836,9.912Zm42.616,-21.436c-1.458,2.179 -3.26,4.478 -5.493,6.396c-2.233,1.918 -4.777,3.353 -7.151,4.467c-2.323,-4.327 -2.303,-9.477 0.66,-12.023c2.963,-2.546 8.057,-1.789 11.984,1.16Z" style="stroke:#000;stroke-width:1px;stroke-linecap:round;stroke-miterlimit:1.5;"/></g></svg>