<?xml version="1.0" encoding="UTF-8" standalone="no"?><!DOCTYPE svg PUBLIC "-//W3C//DTD SVG 1.1//EN" "http://www.w3.org/Graphics/SVG/1.1/DTD/svg11.dtd"><svg width="100%" height="100%" viewBox="0 0 1182 1063" version="1.1" xmlns="http://www.w3.org/2000/svg" xmlns:xlink="http://www.w3.org/1999/xlink" xml:space="preserve" xmlns:serif="http://www.serif.com/" style="fill-rule:evenodd;clip-rule:evenodd;stroke-linejoin:round;stroke-miterlimit:1.41421;"><rect id="Logo---Tag" serif:id="Logo + Tag" x="0.89" y="0" width="1181.1" height="1062.99" style="fill:none;"/><g><g><g><path d="M21.235,577.122c2.713,-2.382 5.019,-3.838 6.918,-4.368c4.611,-1.361 12.478,-2.448 23.6,-3.262c26.313,-1.627 42.589,-4.073 48.828,-7.337c3.798,-5.433 5.697,-13.042 5.697,-22.824l-0.407,-28.528l0.407,-103.524l-0.814,-48.911l0.407,-102.304l-2.035,-116.157c-0.271,-27.716 -2.034,-43.342 -5.29,-46.877c-4.882,-5.162 -19.395,-8.15 -43.538,-8.964c-10.308,-0.272 -19.396,-1.085 -27.262,-2.442c-3.527,-1.899 -5.29,-4.34 -5.29,-7.324c0,-2.17 0.678,-4.747 2.034,-7.731c2.442,-1.356 4.612,-2.034 6.511,-2.034c3.798,0 8.409,0.135 13.834,0.406c16.005,1.628 32.553,2.442 49.642,2.442l30.111,-0.814l71.615,1.628c35.807,0 63.748,-0.407 83.821,-1.221c20.074,-0.814 33.637,-1.221 40.69,-1.221c6.24,0 21.702,0.543 46.387,1.628l57.78,-0.407l6.917,1.221l33.773,-1.221l4.069,2.034c1.357,2.171 2.306,4.476 2.848,6.918c0,3.797 -0.61,9.63 -1.831,17.496c-1.22,7.867 -1.831,12.75 -1.831,14.649c0,28.212 0.95,52.083 2.849,71.614c-0.267,1.628 -1.066,2.713 -2.397,3.256c-2.925,0 -5.585,-0.407 -7.979,-1.221c-2.984,-5.154 -6.988,-14.242 -12.01,-27.262c-5.023,-13.021 -12.557,-28.077 -22.602,-45.166c-6.786,-11.394 -12.079,-18.175 -15.879,-20.345c-3.8,-2.171 -11.672,-3.256 -23.616,-3.256c-2.446,0 -14.797,-0.271 -37.054,-0.813c-5.972,-0.272 -11.808,-0.407 -17.509,-0.407l-116.049,2.441l-10.179,0c-14.933,0 -23.891,1.899 -26.875,5.697c-4.616,6.51 -6.924,25.634 -6.924,57.373c0,3.255 0.679,35.807 2.035,97.656l0,56.559c2.984,0.814 6.239,1.221 9.766,1.221l6.917,0c4.611,0 11.393,0.136 20.345,0.407c14.106,0.542 23.6,0.814 28.483,0.814c3.255,0 6.104,-0.136 8.545,-0.407c29.297,-1.085 67.003,-1.628 113.118,-1.628c14.378,-2.441 22.787,-5.29 25.228,-8.545c4.069,-4.883 7.121,-17.632 9.156,-38.249c2.034,-20.616 6.578,-32.28 13.631,-34.993c3.526,0 6.781,0.678 9.765,2.035c0.543,2.17 0.814,4.204 0.814,6.103c0,1.899 -0.271,5.018 -0.814,9.359c-1.356,10.037 -2.034,41.504 -2.034,94.401c0,14.106 0.746,29.839 2.238,47.2c1.492,17.361 2.238,26.72 2.238,28.076c0,2.442 -0.407,5.697 -1.221,9.766c-2.17,1.085 -3.933,1.628 -5.29,1.628l-2.848,0c-4.34,-7.596 -8.545,-19.396 -12.614,-35.401c-7.053,-27.398 -14.445,-44.555 -22.176,-51.473c-7.731,-6.917 -20.277,-10.376 -37.638,-10.376c-3.798,0 -10.715,0.204 -20.752,0.611c-10.037,0.407 -24.957,0.61 -44.759,0.61l-26.449,0c-37.706,0 -62.391,0.816 -74.056,2.448l-0.407,13.447l0.407,74.997l-0.407,47.283l0.407,46.056c0.271,27.716 2.035,43.746 5.29,48.09c4.611,5.981 14.648,8.971 30.11,8.971l24.821,-0.407c2.171,0 10.648,0.204 25.432,0.611c14.784,0.407 33.026,0.61 54.728,0.61c52.354,0 87.212,-2.245 104.573,-6.736c17.362,-4.491 31.671,-12.452 42.929,-23.883c11.257,-11.431 25.431,-36.064 42.521,-73.897c5.154,-11.16 10.308,-16.74 15.462,-16.74c2.441,0 5.154,1.085 8.138,3.255c-7.867,26.855 -12.343,44.488 -13.428,52.897c-2.984,18.989 -4.747,38.384 -5.29,58.187c0,8.952 -2.17,16.412 -6.51,22.379l-8.952,0l-114.339,1.221l-51.269,-0.407l-122.071,1.628l-49.642,0c-6.239,0 -12.071,0.135 -17.496,0.407c-48.829,2.17 -84.772,3.255 -107.829,3.255c-4.069,0 -6.85,-0.661 -8.342,-1.984c-1.492,-1.322 -2.238,-3.308 -2.238,-5.957l0.407,-3.967Z" style="fill:#11386e;fill-rule:nonzero;"/><path d="M1161.65,577.122c-2.712,-2.382 -5.018,-3.838 -6.917,-4.368c-4.611,-1.361 -12.478,-2.448 -23.6,-3.262c-26.313,-1.627 -42.589,-4.073 -48.828,-7.337c-3.798,-5.433 -5.697,-13.042 -5.697,-22.824l0.407,-28.528l-0.407,-103.524l0.814,-48.911l-0.407,-102.304l2.035,-116.157c0.271,-27.716 2.034,-43.342 5.289,-46.877c4.883,-5.162 19.396,-8.15 43.539,-8.964c10.308,-0.272 19.395,-1.085 27.262,-2.442c3.527,-1.899 5.29,-4.34 5.29,-7.324c0,-2.17 -0.678,-4.747 -2.035,-7.731c-2.441,-1.356 -4.611,-2.034 -6.51,-2.034c-3.798,0 -8.409,0.135 -13.835,0.406c-16.005,1.628 -32.552,2.442 -49.642,2.442l-30.11,-0.814l-71.615,1.628c-35.807,0 -63.748,-0.407 -83.822,-1.221c-20.073,-0.814 -33.637,-1.221 -40.69,-1.221c-6.239,0 -21.701,0.543 -46.386,1.628l-57.78,-0.407l-6.918,1.221l-33.772,-1.221l-4.069,2.034c-1.357,2.171 -2.306,4.476 -2.849,6.918c0,3.797 0.611,9.63 1.831,17.496c1.221,7.867 1.831,12.75 1.831,14.649c0,28.212 -0.949,52.083 -2.848,71.614c0.267,1.628 1.066,2.713 2.397,3.256c2.925,0 5.584,-0.407 7.979,-1.221c2.984,-5.154 6.987,-14.242 12.01,-27.262c5.023,-13.021 12.557,-28.077 22.602,-45.166c6.786,-11.394 12.079,-18.175 15.879,-20.345c3.8,-2.171 11.672,-3.256 23.616,-3.256c2.446,0 14.797,-0.271 37.053,-0.813c5.972,-0.272 11.809,-0.407 17.51,-0.407l116.049,2.441l10.179,0c14.933,0 23.891,1.899 26.875,5.697c4.615,6.51 6.923,25.634 6.923,57.373c0,3.255 -0.678,35.807 -2.034,97.656l0,56.559c-2.984,0.814 -6.239,1.221 -9.766,1.221l-6.917,0c-4.612,0 -11.393,0.136 -20.345,0.407c-14.106,0.542 -23.6,0.814 -28.483,0.814c-3.255,0 -6.104,-0.136 -8.545,-0.407c-29.297,-1.085 -67.003,-1.628 -113.119,-1.628c-14.377,-2.441 -22.786,-5.29 -25.228,-8.545c-4.069,-4.883 -7.12,-17.632 -9.155,-38.249c-2.034,-20.616 -6.578,-32.28 -13.631,-34.993c-3.526,0 -6.782,0.678 -9.766,2.035c-0.542,2.17 -0.813,4.204 -0.813,6.103c0,1.899 0.271,5.018 0.813,9.359c1.357,10.037 2.035,41.504 2.035,94.401c0,14.106 -0.746,29.839 -2.238,47.2c-1.492,17.361 -2.238,26.72 -2.238,28.076c0,2.442 0.407,5.697 1.221,9.766c2.17,1.085 3.933,1.628 5.289,1.628l2.849,0c4.34,-7.596 8.545,-19.396 12.614,-35.401c7.053,-27.398 14.445,-44.555 22.176,-51.473c7.731,-6.917 20.277,-10.376 37.638,-10.376c3.798,0 10.715,0.204 20.752,0.611c10.037,0.407 24.957,0.61 44.759,0.61l26.449,0c37.706,0 62.391,0.816 74.056,2.448l0.407,13.447l-0.407,74.997l0.407,47.283l-0.407,46.056c-0.272,27.716 -2.035,43.746 -5.29,48.09c-4.612,5.981 -14.648,8.971 -30.111,8.971l-24.821,-0.407c-2.17,0 -10.647,0.204 -25.431,0.611c-14.784,0.407 -33.027,0.61 -54.728,0.61c-52.355,0 -87.213,-2.245 -104.574,-6.736c-17.361,-4.491 -31.67,-12.452 -42.928,-23.883c-11.257,-11.431 -25.431,-36.064 -42.521,-73.897c-5.154,-11.16 -10.308,-16.74 -15.462,-16.74c-2.442,0 -5.154,1.085 -8.138,3.255c7.867,26.855 12.342,44.488 13.428,52.897c2.983,18.989 4.747,38.384 5.289,58.187c0,8.952 2.17,16.412 6.511,22.379l8.951,0l114.34,1.221l51.269,-0.407l122.071,1.628l49.641,0c6.24,0 12.072,0.135 17.497,0.407c48.828,2.17 84.771,3.255 107.829,3.255c4.069,0 6.849,-0.661 8.341,-1.984c1.492,-1.322 2.238,-3.308 2.238,-5.957l-0.407,-3.967Z" style="fill:#11386e;fill-rule:nonzero;"/><path d="M559.665,306.86c-9.18,-11.714 -15.064,-20.362 -17.651,-25.943c-2.588,-5.581 -3.882,-10.867 -3.882,-15.86c0,-8.617 3.564,-16.156 10.693,-22.618c7.129,-6.462 17.285,-9.693 30.469,-9.693c12.207,0 21.655,3.131 28.345,9.394c6.689,6.263 10.034,14.042 10.034,23.338c0,8.807 -2.246,16.147 -6.739,22.018c-4.492,5.872 -11.914,11.107 -22.265,15.706c3.418,4.778 8.887,11.409 16.406,19.892c2.539,2.828 4.443,5.07 5.713,6.727l25.049,31.156c8.301,-9.36 14.428,-17.867 18.384,-25.521c3.955,-7.653 5.932,-13.528 5.932,-17.624c0,-2.827 -0.903,-5.264 -2.71,-7.311c-1.806,-2.047 -4.907,-3.656 -9.302,-4.826c-0.39,-0.977 -0.585,-1.709 -0.585,-2.197l0.292,-1.319l16.846,-1.611c3.418,-0.488 8.252,-0.83 14.502,-1.026c6.25,-0.195 14.942,-0.732 26.074,-1.611l0.293,1.758c0,0.586 -0.195,1.416 -0.586,2.49c-6.836,2.925 -12.671,6.265 -17.504,10.02c-4.834,3.754 -12.159,11.36 -21.973,22.817c-9.815,11.457 -18.237,22.012 -25.269,31.664c12.403,14.812 21.118,23.903 26.148,27.272c5.029,3.369 10.425,5.053 16.186,5.053c6.348,0 11.866,-1.904 16.553,-5.713c3.125,-2.441 5.371,-3.662 6.738,-3.662c0.489,0 1.319,0.196 2.491,0.586c-2.149,9.18 -4.151,14.502 -6.006,15.967c-7.422,6.152 -15.576,9.229 -24.463,9.229c-5.469,0 -10.572,-0.855 -15.308,-2.564c-4.736,-1.709 -9.643,-4.37 -14.722,-7.983c-2.929,-2.149 -7.861,-6.592 -14.794,-13.33c-4.395,-4.285 -7.276,-7.012 -8.643,-8.181c-7.813,7.807 -13.623,13.125 -17.432,15.956c-6.738,4.977 -14.087,8.881 -22.046,11.711c-7.959,2.829 -17.065,4.244 -27.319,4.244c-12.598,0 -23.071,-2.633 -31.421,-7.9c-8.349,-5.266 -14.404,-12.093 -18.164,-20.481c-3.76,-8.388 -5.639,-16.386 -5.639,-23.994c0,-5.852 1.074,-11.484 3.222,-16.896c2.149,-5.412 4.981,-10.045 8.496,-13.898c3.516,-3.852 8.252,-7.827 14.209,-11.922c2.051,-1.366 7.08,-4.048 15.088,-8.048c4.981,-2.438 10.401,-4.193 16.26,-5.266Zm23.584,-9.222c5.469,-2.344 9.766,-6.299 12.891,-11.865c3.125,-5.566 4.687,-11.475 4.687,-17.725c0,-9.277 -2.148,-16.381 -6.445,-21.313c-4.297,-4.932 -9.766,-7.398 -16.407,-7.398c-5.957,0 -10.791,1.783 -14.502,5.347c-3.71,3.565 -5.566,7.837 -5.566,12.817c0,5.176 1.953,10.84 5.859,16.993c5.567,8.593 12.061,16.308 19.483,23.144Zm37.207,80.303l-1.172,-1.609l-0.439,-0.586l-32.666,-38.903c-4.004,-4.972 -11.426,-13.407 -22.266,-25.303c-12.207,4.583 -21.46,11.115 -27.759,19.598c-6.299,8.484 -9.448,17.455 -9.448,26.914c0,2.632 0.806,6.337 2.417,11.114c1.611,4.778 4.517,9.433 8.716,13.968c4.199,4.534 9.521,8.068 15.967,10.604c6.445,2.535 13.818,3.803 22.119,3.803c9.57,0 18.237,-1.878 26.001,-5.632c7.763,-3.755 13.94,-8.41 18.53,-13.968Z" style="fill:#11386e;fill-rule:nonzero;"/></g><path d="M37.795,649.083l-0.115,-1.837c1.069,-1.377 4.085,-2.066 9.048,-2.066l10.65,0.115l6.185,0.114l2.748,-0.114c10.001,0 16.033,0.153 18.094,0.459c0.077,0.918 0.115,1.607 0.115,2.066c0,0.689 -0.075,1.684 -0.226,2.985l-10.94,0.459c-0.534,0.077 -1.26,0.268 -2.178,0.574c-0.306,0.766 -0.459,1.34 -0.459,1.722c0,0.46 0.229,1.187 0.689,2.182c0.612,1.301 1.186,2.678 1.722,4.133l7.227,20.205l17.21,43.167c1.988,5.281 3.327,8.686 4.016,10.217c2.141,4.822 4.856,11.557 8.146,20.206c1.147,2.985 3.9,9.452 8.26,19.402c0.229,0.612 0.687,1.607 1.376,2.985c3.444,-5.588 8.496,-15.346 15.154,-29.276c5.205,-10.715 8.458,-18.1 9.759,-22.157l-0.917,-2.299l-19.721,-44.844c-2.599,-5.596 -4.624,-10.041 -6.076,-13.337c-2.998,-6.899 -5.188,-10.847 -6.571,-11.844c-1.383,-0.997 -5.457,-1.686 -12.221,-2.069l-2.421,-0.56c-0.615,-0.672 -0.922,-1.456 -0.922,-2.351c0.153,-0.672 0.497,-1.196 1.033,-1.57c2.449,-0.074 4.171,-0.111 5.166,-0.111l7.233,0.224l3.673,-0.113l6.315,0l5.625,-0.111l5.97,0l10.791,-0.574c0.689,0 1.722,0.038 3.1,0.115l1.837,-0.115c1.071,0 1.875,0.249 2.411,0.746c0.536,0.498 0.804,1.053 0.804,1.665c0,0.536 -0.154,1.148 -0.46,1.837c-1.224,0.459 -3.406,0.842 -6.544,1.148c-4.515,0.535 -7.137,1.033 -7.864,1.492c-0.727,0.459 -1.09,1.072 -1.09,1.837c0,1.454 2.955,9.146 8.865,23.076l11.742,26.519c3.583,-7.041 8.462,-18.139 14.638,-33.293c2.602,-6.276 3.903,-10.906 3.903,-13.891c0,-1.607 -0.651,-3.062 -1.952,-4.363c-0.995,-0.918 -3.214,-1.53 -6.658,-1.837l-2.411,-0.344l-2.067,-0.918l-0.115,-0.919c0,-0.459 0.192,-1.11 0.574,-1.951c0.766,-0.613 1.455,-0.957 2.067,-1.034c1.148,-0.153 6.467,0.039 15.958,0.574l7.806,0l4.822,0.115l8.037,-0.115c0.612,0.077 1.53,0.268 2.755,0.574c0.612,0.613 0.918,1.187 0.918,1.722c0,0.842 -0.325,1.531 -0.976,2.067c-0.65,0.536 -2.124,0.995 -4.421,1.378c-5.818,0.994 -10.181,2.525 -13.09,4.592c-1.914,1.454 -3.637,3.52 -5.168,6.199l-8.355,18.598c-1.984,5.664 -3.625,9.912 -4.923,12.744c-0.533,1.76 -1.525,4.094 -2.976,7.003l-4.692,10.906c0.842,1.99 2.258,5.205 4.248,9.644l11.824,27.438c0.536,1.224 2.124,4.63 4.765,10.217c2.64,5.588 4.841,10.754 6.601,15.499l1.72,-5.511l0.228,-0.574l6.994,-18.253c2.445,-5.588 4.89,-11.481 7.335,-17.68l8.827,-22.272l13.298,-37.886c1.378,-4.362 2.487,-8.572 3.329,-12.628l0.345,-1.837c0.229,-0.842 0.344,-1.454 0.344,-1.837c0,-1.071 -0.536,-2.047 -1.607,-2.927c-1.072,-0.881 -4.86,-2.086 -11.366,-3.617c-0.612,-0.229 -1.224,-0.574 -1.837,-1.033c-0.229,-0.918 -0.344,-1.646 -0.344,-2.181l0.115,-0.804c3.214,-0.153 5.243,-0.23 6.084,-0.23l8.84,0.23l9.988,-0.115l8.611,0l3.444,0.23l0.115,1.148c0,0.536 -0.077,1.339 -0.23,2.411c-5.524,2.143 -8.957,3.674 -10.299,4.592c-1.343,0.918 -2.378,1.913 -3.106,2.985c-0.728,1.071 -2.09,3.98 -4.085,8.725c-0.229,0.459 -2.635,7.348 -7.218,20.665c-0.993,1.99 -2.023,4.63 -3.093,7.921c-0.306,0.919 -0.955,2.564 -1.948,4.937l-1.833,4.592l-1.259,3.329c-5.041,13.93 -10.578,28.51 -16.613,43.741l-12.373,34.441l-4.926,13.088c-1.179,0.153 -2.064,0.229 -2.653,0.229c-0.516,0 -1.252,-0.038 -2.21,-0.114c-1.001,-2.832 -3.196,-8.19 -6.585,-16.073c-8.782,-20.053 -16.678,-36.699 -23.688,-49.94l-1.372,2.296c-3.891,7.424 -8.583,17.259 -14.074,29.505l-8.926,18.139c-3.661,7.73 -6.636,13.088 -8.925,16.073l-5.25,0.114l-18.562,-45.462l-15.356,-36.049l-13.521,-34.211c-0.918,-2.22 -1.72,-4.325 -2.408,-6.315c-0.534,-1.454 -1.03,-2.946 -1.489,-4.477c-0.762,-2.373 -2.9,-7.768 -6.412,-16.187c-1.376,-2.22 -3.59,-3.636 -6.644,-4.248c-3.053,-0.612 -5.306,-1.225 -6.756,-1.837Z" style="fill:#5893e4;fill-rule:nonzero;"/><path d="M253.053,787.767c1.684,-0.689 3.406,-1.11 5.166,-1.263c11.71,-0.767 18.407,-2.165 20.091,-4.194c1.683,-2.03 2.525,-11.854 2.525,-29.473l-0.114,-12.063l0,-12.639l-0.46,-13.902l0.23,-8.159l-0.115,-8.962l0,-10.57l-0.229,-4.711l0.229,-5.975c0.077,-1.379 0.115,-2.988 0.115,-4.826c0,-4.826 -0.23,-9.92 -0.689,-15.281c-0.306,-1.073 -0.727,-2.107 -1.263,-3.103c-2.832,-1.456 -7.405,-2.433 -13.719,-2.931c-6.314,-0.498 -9.892,-1.053 -10.734,-1.665c-0.612,-0.459 -0.957,-1.646 -1.033,-3.559l9.659,0l30.472,0.689c7.819,0 18.244,-0.23 31.277,-0.689c0,1.224 -0.077,2.373 -0.23,3.444c-1.53,0.383 -4.094,0.804 -7.692,1.263c-7.27,0.843 -11.71,1.647 -13.317,2.413c-0.995,0.383 -1.722,1.035 -2.181,1.953c-0.765,1.379 -1.225,3.945 -1.378,7.699l-0.574,14.822l0.459,51.131l0,20.222c-0.153,6.358 -0.229,10.686 -0.229,12.984c0,8.579 0.21,14.056 0.631,16.43c0.421,2.374 1.148,4.079 2.182,5.113c1.033,1.035 2.736,1.858 5.108,2.47c3.521,0.844 6.276,1.303 8.266,1.38c4.286,0.153 7.003,0.765 8.151,1.837c0.23,0.995 0.345,1.837 0.345,2.525l0,0.919c-6.976,0.229 -12.112,0.344 -15.409,0.344c-1.916,0 -5.327,-0.115 -10.234,-0.344l-15.868,0.229l-27.024,-0.114l-2.185,0l-0.229,-3.444Z" style="fill:#5893e4;fill-rule:nonzero;"/><path d="M332.612,792.129c0.077,-1.148 0.383,-2.181 0.918,-3.1c5.97,-1.608 11.787,-2.68 17.451,-3.216c3.75,-0.307 6.161,-1.15 7.232,-2.529c0.766,-0.995 1.225,-4.672 1.378,-11.03l0.804,-30.332l-0.115,-20.568l0.115,-26.886l0,-7.123c0.076,-16.162 -0.001,-26.235 -0.232,-30.218c-0.076,-0.767 -0.384,-1.84 -0.922,-3.219c-1.999,-0.918 -3.672,-1.531 -5.018,-1.837c-1.346,-0.307 -7.363,-1.418 -18.052,-3.332c-0.077,-0.842 -0.115,-1.455 -0.115,-1.837c0,-0.459 0.038,-1.072 0.115,-1.837c1.457,0 3.833,0.087 7.13,0.262l17.478,0.656l10.12,0.23l2.989,-0.115c0.384,0 1.495,0.077 3.334,0.23c4.524,0 7.131,-0.039 7.82,-0.115l9.2,-0.689c6.209,0 10.578,0.115 13.108,0.345c-0.077,1.377 -0.345,2.87 -0.804,4.477c-0.842,0.153 -4.822,0.363 -11.94,0.631c-7.118,0.268 -11.212,0.708 -12.284,1.321c-1.76,0.995 -2.64,4.056 -2.64,9.184c0,1.224 -0.077,3.712 -0.23,7.462l0,6.888l0.115,21.239l0,7.233l0.23,38l-0.345,32.375l0.115,7.118c0,2.296 0.383,3.712 1.148,4.247c1.913,0.077 7.539,0.154 16.876,0.23l7.807,0l19.861,-0.689c5.205,-0.153 8.917,-0.669 11.136,-1.55c2.22,-0.88 5.932,-3.463 11.136,-7.749c3.138,-2.755 5.587,-5.587 7.348,-8.495c0.382,-0.613 1.033,-1.531 1.951,-2.756c1.454,-1.99 3.406,-5.97 5.855,-11.939l3.789,0c-0.459,2.755 -0.957,5.357 -1.493,7.806c-2.219,10.792 -3.75,19.785 -4.592,26.979c-0.153,1.531 -0.306,2.947 -0.459,4.248l-42.937,-1.263c-36.89,0 -58.78,0.345 -65.668,1.034c-2.143,0.153 -4.401,0.229 -6.773,0.229l-11.94,0Z" style="fill:#5893e4;fill-rule:nonzero;"/><path d="M467.277,792.129c0.077,-1.148 0.383,-2.181 0.919,-3.1c5.97,-1.608 11.786,-2.68 17.45,-3.216c3.75,-0.307 6.161,-1.15 7.233,-2.529c0.765,-0.995 1.224,-4.672 1.377,-11.03l0.804,-30.332l-0.115,-20.568l0.115,-26.886l0,-7.123c0.077,-16.162 -0.001,-26.235 -0.231,-30.218c-0.077,-0.767 -0.384,-1.84 -0.922,-3.219c-2,-0.918 -3.673,-1.531 -5.019,-1.837c-1.346,-0.307 -7.363,-1.418 -18.052,-3.332c-0.076,-0.842 -0.114,-1.455 -0.114,-1.837c0,-0.459 0.038,-1.072 0.114,-1.837c1.457,0 3.834,0.087 7.131,0.262l17.477,0.656l10.121,0.23l2.988,-0.115c0.384,0 1.496,0.077 3.335,0.23c4.524,0 7.13,-0.039 7.819,-0.115l9.201,-0.689c6.209,0 10.578,0.115 13.107,0.345c-0.077,1.377 -0.344,2.87 -0.804,4.477c-0.842,0.153 -4.821,0.363 -11.939,0.631c-7.118,0.268 -11.213,0.708 -12.284,1.321c-1.761,0.995 -2.641,4.056 -2.641,9.184c0,1.224 -0.076,3.712 -0.229,7.462l0,6.888l0.114,21.239l0,7.233l0.23,38l-0.344,32.375l0.114,7.118c0,2.296 0.383,3.712 1.148,4.247c1.914,0.077 7.539,0.154 16.877,0.23l7.806,0l19.861,-0.689c5.205,-0.153 8.917,-0.669 11.136,-1.55c2.22,-0.88 5.932,-3.463 11.136,-7.749c3.138,-2.755 5.588,-5.587 7.348,-8.495c0.383,-0.613 1.033,-1.531 1.952,-2.756c1.454,-1.99 3.405,-5.97 5.855,-11.939l3.788,0c-0.459,2.755 -0.957,5.357 -1.492,7.806c-2.22,10.792 -3.751,19.785 -4.593,26.979c-0.153,1.531 -0.306,2.947 -0.459,4.248l-42.937,-1.263c-36.89,0 -58.779,0.345 -65.668,1.034c-2.143,0.153 -4.4,0.229 -6.773,0.229l-11.94,0Z" style="fill:#5893e4;fill-rule:nonzero;"/><path d="M605.616,787.767c1.684,-0.689 3.406,-1.11 5.167,-1.263c11.71,-0.767 18.407,-2.165 20.09,-4.194c1.684,-2.03 2.526,-11.854 2.526,-29.473l-0.115,-12.063l0,-12.639l-0.459,-13.902l0.23,-8.159l-0.115,-8.962l0,-10.57l-0.23,-4.711l0.23,-5.975c0.076,-1.379 0.115,-2.988 0.115,-4.826c0,-4.826 -0.23,-9.92 -0.689,-15.281c-0.306,-1.073 -0.727,-2.107 -1.263,-3.103c-2.832,-1.456 -7.405,-2.433 -13.719,-2.931c-6.314,-0.498 -9.892,-1.053 -10.734,-1.665c-0.613,-0.459 -0.957,-1.646 -1.034,-3.559l9.66,0l30.472,0.689c7.818,0 18.244,-0.23 31.277,-0.689c0,1.224 -0.077,2.373 -0.23,3.444c-1.531,0.383 -4.095,0.804 -7.692,1.263c-7.271,0.843 -11.71,1.647 -13.317,2.413c-0.995,0.383 -1.722,1.035 -2.181,1.953c-0.766,1.379 -1.225,3.945 -1.378,7.699l-0.574,14.822l0.459,51.131l0,20.222c-0.153,6.358 -0.229,10.686 -0.229,12.984c0,8.579 0.21,14.056 0.631,16.43c0.421,2.374 1.148,4.079 2.181,5.113c1.034,1.035 2.736,1.858 5.109,2.47c3.521,0.844 6.276,1.303 8.266,1.38c4.286,0.153 7.003,0.765 8.151,1.837c0.23,0.995 0.344,1.837 0.344,2.525l0,0.919c-6.975,0.229 -12.111,0.344 -15.408,0.344c-1.916,0 -5.327,-0.115 -10.234,-0.344l-15.868,0.229l-27.024,-0.114l-2.185,0l-0.23,-3.444Z" style="fill:#5893e4;fill-rule:nonzero;"/><path d="M682.65,787.767c1.072,-0.613 2.028,-0.919 2.868,-0.919l2.641,0c0.534,0 1.452,-0.038 2.753,-0.115c5.891,-0.535 9.373,-1.071 10.444,-1.607c2.678,-1.454 4.972,-3.98 6.885,-7.577c3.981,-7.807 8.459,-18.866 13.435,-33.178c2.374,-6.812 3.867,-10.945 4.48,-12.399c1.913,-4.592 3.75,-9.414 5.512,-14.466l10.793,-30.193c1.685,-4.745 5.743,-15.614 12.173,-32.605c1.607,-4.286 3.56,-10.026 5.857,-17.22l3.38,-0.23l4.014,0.115c3.288,6.506 6.192,13.509 8.714,21.009c1.377,3.98 3.632,9.912 6.767,17.795l17.428,47.184l9.289,25.602c4.898,14.542 8.113,23.477 9.643,26.807c1.531,3.329 2.947,5.529 4.248,6.601c0.383,0.306 1.818,0.765 4.305,1.377c2.488,0.613 4.229,1.072 5.224,1.378c3.521,0.995 5.97,1.837 7.347,2.526c0.306,0.842 0.46,1.492 0.46,1.951c0,0.383 -0.115,0.957 -0.345,1.722c-2.449,0.077 -4.171,0.115 -5.166,0.115c-3.903,0 -10.792,-0.115 -20.665,-0.344l-11.48,-0.258l-13.892,0.172c-0.918,0 -1.856,-0.043 -2.812,-0.129c-0.957,-0.086 -1.78,-0.13 -2.469,-0.13l-2.525,0c-0.842,-0.076 -1.607,-0.306 -2.296,-0.688c0,-1.072 0.191,-2.105 0.574,-3.1c0.918,-0.459 1.76,-0.727 2.525,-0.804l12.051,-0.805c3.137,-0.153 5.509,-0.575 7.116,-1.265c0.46,-1.38 0.689,-2.415 0.689,-3.105c0,-1.381 -0.995,-4.947 -2.985,-10.698c-1.375,-3.834 -2.579,-7.476 -3.611,-10.926c-1.032,-3.45 -5.102,-14.799 -12.21,-34.045c-3.138,-0.537 -5.894,-0.806 -8.266,-0.806l-24.568,0.23l-7.233,-0.115c-2.602,0 -5.472,0.192 -8.61,0.574c-0.996,2.296 -1.648,3.942 -1.954,4.937l-10.117,31.571c-4.286,12.016 -6.429,18.637 -6.429,19.861c0,0.689 0.345,1.837 1.033,3.444c1.608,0.459 3.751,0.88 6.429,1.263l15.614,1.378c0.842,0.689 1.263,1.301 1.263,1.837c0,0.382 -0.115,0.956 -0.345,1.722c-3.444,0.076 -6.084,0.114 -7.921,0.114c-6.123,0 -13.241,-0.191 -21.354,-0.574c-3.75,-0.153 -6.429,-0.229 -8.036,-0.229c-1.607,0 -4.401,0.076 -8.381,0.229c-2.602,0.154 -4.477,0.23 -5.625,0.23c-1.837,0 -4.21,-0.115 -7.118,-0.344l0,-0.689c0,-0.536 0.153,-1.263 0.459,-2.181Zm54.781,-68.883c8.19,0.459 17.527,0.689 28.013,0.689c5.97,0 11.212,-0.191 15.728,-0.574c-0.765,-2.984 -1.645,-5.776 -2.639,-8.377c-4.968,-13.313 -7.719,-20.657 -8.253,-22.034l-10.435,-26.509l-1.146,-2.066c-0.46,0.918 -2.147,4.858 -5.059,11.819c-4.905,11.936 -8.431,21.232 -10.576,27.887c-0.996,2.984 -2.031,5.948 -3.104,8.894c-1.073,2.945 -1.744,5.011 -2.012,6.197c-0.268,1.187 -0.67,2.391 -1.207,3.615l0.69,0.459Z" style="fill:#5893e4;fill-rule:nonzero;"/><path d="M844.754,788.685c2.372,-1.607 6.658,-2.754 12.858,-3.441c4.822,-0.228 7.692,-0.647 8.61,-1.257c0.612,-0.457 1.072,-1.028 1.378,-1.715c1.148,-2.819 1.99,-10.478 2.525,-22.977c0.702,-16.302 1.834,-37.999 3.394,-65.092c1.249,-20.664 1.873,-33.559 1.873,-38.687l0,-2.985c-5.531,-1.149 -14.288,-2.375 -26.272,-3.678c-0.768,-1.148 -1.152,-2.028 -1.152,-2.64c0,-0.383 0.267,-1.072 0.802,-2.067c1.299,-0.459 2.292,-0.688 2.98,-0.688c0.609,0 1.946,0.153 4.009,0.459c3.742,0.536 8.896,0.803 15.464,0.803c2.14,0 5.806,-0.175 10.998,-0.525c3.667,-0.262 5.729,-0.393 6.187,-0.393c1.222,0 2.635,0.23 4.239,0.689c0.787,0.776 1.377,1.513 1.77,2.212l4.806,10.789l32.495,71.866l13.547,30.167c10.599,-21.048 18.834,-39.761 24.706,-56.14c0.381,-1.224 0.84,-2.334 1.374,-3.329c0.685,-1.301 1.333,-2.755 1.944,-4.362c0.61,-1.608 3.088,-7.731 7.434,-18.369c1.754,-4.286 3.166,-7.96 4.234,-11.021c4.345,-12.246 6.9,-19.249 7.663,-21.009c1.457,-0.613 2.724,-0.919 3.799,-0.919c1.227,0 2.8,0.115 4.718,0.344c4.298,0.23 11.281,0.345 20.95,0.345c5.985,0 10.897,-0.077 14.734,-0.23c0.153,0.842 0.23,1.454 0.23,1.837c0,0.536 -0.115,1.263 -0.345,2.181c-2.449,1.302 -5.395,2.029 -8.84,2.182c-6.811,0.382 -11.136,0.918 -12.972,1.607c-1.837,0.689 -3.005,1.569 -3.502,2.64c-0.497,1.072 -0.938,4.593 -1.32,10.562l0.115,5.281l-0.115,5.511c0,11.48 0.306,30.768 0.918,57.861l-0.115,22.502l0.115,14.465c0,5.664 0.268,9.012 0.804,10.046c0.536,1.033 2.066,2.009 4.592,2.927c4.133,1.378 10.868,2.794 20.206,4.248c0.535,0.383 0.803,0.88 0.803,1.492c0,0.689 -0.038,1.455 -0.115,2.297l-5.288,0c-4.524,0 -9.431,-0.134 -14.721,-0.402c-5.29,-0.268 -8.127,-0.402 -8.511,-0.402c-15.716,0 -26.143,0.175 -31.28,0.525c-3.143,0.262 -5.136,0.393 -5.979,0.393c-0.537,0 -1.112,-0.153 -1.726,-0.459l0,-1.492c0,-0.689 0.115,-1.416 0.345,-2.182c2.526,-1.072 5.97,-1.8 10.332,-2.183c4.822,-1.302 8.343,-2.681 10.562,-4.136c0.689,-2.912 1.033,-8.85 1.033,-17.813l-0.344,-23.212c0,-2.528 0.134,-7.239 0.402,-14.133c0.268,-6.895 0.402,-18.117 0.402,-33.668c0,-12.335 -0.306,-21.681 -0.919,-28.04c-1.295,2.679 -3.848,8.496 -7.659,17.451l-1.715,4.362l-0.23,0.689l-16.919,40.182l-6.06,15.498l-7.889,18.828c-3.43,8.649 -6.364,16.302 -8.802,22.961c-1.067,3.061 -1.943,5.472 -2.63,7.233l-2.678,-0.115c-8.658,-25.257 -18.983,-51.165 -30.975,-77.723c-11.991,-26.558 -20.401,-44.085 -25.229,-52.58c-0.63,3.291 -1.339,12.858 -2.127,28.701c-1.024,19.287 -1.536,40.526 -1.536,63.716c0,7.246 0.536,15.407 1.607,24.484c0.307,2.593 1.416,4.518 3.33,5.777c1.913,1.259 6.85,1.964 14.81,2.116c3.061,0 5.969,0.229 8.725,0.687c0.535,1.178 0.803,2.041 0.803,2.59c0,0.392 -0.19,1.06 -0.572,2.002l-35.645,-1.263c-2.597,0 -6.647,0.17 -12.149,0.51c-3.056,0.204 -7.449,0.341 -13.18,0.409l-0.114,-3.1Z" style="fill:#5893e4;fill-rule:nonzero;"/><path d="M1130.39,649.772c0.612,5.051 0.918,7.96 0.918,8.725l-0.459,10.218c-0.153,4.362 -0.345,7.156 -0.574,8.38c-0.689,0.306 -1.263,0.46 -1.722,0.46l-1.034,-0.23c-2.449,-10.715 -6.601,-18.522 -12.456,-23.42c-5.855,-4.898 -12.992,-7.348 -21.411,-7.348c-8.725,0 -15.881,2.45 -21.468,7.348c-5.587,4.898 -8.381,10.6 -8.381,17.106c0,4.975 1.952,9.528 5.855,13.661c3.903,4.133 13.891,10.317 29.964,18.552c12.246,6.329 21.009,11.504 26.29,15.526c5.281,4.023 9.261,8.677 11.94,13.963c2.679,5.287 4.018,11.186 4.018,17.697c0,8.198 -2.124,15.898 -6.372,23.099c-4.247,7.202 -9.968,12.622 -17.163,16.261c-7.194,3.639 -16.723,5.459 -28.586,5.459c-10.332,0 -20.244,-1.646 -29.734,-4.937c-5.588,-1.99 -8.993,-3.597 -10.218,-4.822c-1.225,-1.224 -1.837,-2.525 -1.837,-3.903c0,-0.842 0.077,-1.913 0.23,-3.214c1.071,-9.032 1.645,-16.456 1.722,-22.272c0.153,-3.598 0.421,-5.702 0.803,-6.315c0.307,-0.535 0.881,-0.803 1.723,-0.803c0.688,0 1.243,0.248 1.664,0.746c0.421,0.497 0.708,1.435 0.861,2.813c0.842,9.414 5.205,17.833 13.088,25.257c7.807,7.424 16.647,11.136 26.52,11.136c6.046,0 11.614,-1.263 16.704,-3.789c5.089,-2.526 9.069,-6.18 11.939,-10.964c2.87,-4.783 4.305,-9.433 4.305,-13.948c0,-6.2 -2.181,-11.864 -6.543,-16.991c-4.363,-5.128 -13.126,-11.117 -26.291,-17.967c-13.164,-6.85 -21.736,-11.844 -25.716,-14.982c-6.429,-5.128 -11.25,-10.562 -14.465,-16.302c-2.373,-4.44 -3.559,-9.606 -3.559,-15.499c0,-10.639 4.21,-19.651 12.629,-27.036c8.419,-7.386 19.708,-11.079 33.867,-11.079c7.806,0 14.542,0.88 20.205,2.64c4.133,1.378 8.381,3.636 12.744,6.774Z" style="fill:#5893e4;fill-rule:nonzero;"/></g><path d="M220.658,958.83c-2.449,7.178 -5.098,12.903 -7.947,17.176c-2.848,4.272 -5.711,7.533 -8.587,9.784c-2.877,2.25 -5.697,3.717 -8.46,4.4c-2.763,0.684 -5.283,1.026 -7.562,1.026c-3.874,0 -7.121,-0.556 -9.741,-1.667c-2.621,-1.11 -4.743,-2.592 -6.366,-4.443c-1.624,-1.851 -2.792,-3.959 -3.504,-6.323c-0.712,-2.364 -1.068,-4.8 -1.068,-7.306c0,-2.962 0.413,-6.423 1.239,-10.382c0.826,-3.959 1.723,-8.018 2.692,-12.177c0.968,-4.158 1.866,-8.174 2.692,-12.048c0.826,-3.874 1.239,-7.206 1.239,-9.998c0,-5.981 -2.108,-8.972 -6.324,-8.972c-1.538,0 -2.962,0.399 -4.272,1.197c-1.31,0.797 -2.521,1.879 -3.632,3.247c-1.111,1.367 -2.107,2.962 -2.99,4.785c-0.883,1.823 -1.667,3.76 -2.35,5.81c-1.481,7.805 -3.105,16.378 -4.871,25.721c-1.766,9.342 -3.703,19.852 -5.81,31.53l-25.208,0l24.011,-111.682c-3.589,-0.285 -7.32,-0.683 -11.194,-1.196c-3.873,-0.513 -7.861,-1.082 -11.962,-1.709l-24.695,114.587l-25.122,0l24.951,-116.211c-4.899,0.228 -9.485,0.912 -13.758,2.051c-4.272,1.139 -7.989,3.048 -11.151,5.725c-3.161,2.678 -5.654,6.281 -7.476,10.81c-1.823,4.528 -2.735,10.239 -2.735,17.132c0,2.222 0.128,4.03 0.385,5.426c0.256,1.396 0.527,2.507 0.811,3.333c0.285,0.826 0.556,1.467 0.812,1.922c0.257,0.456 0.385,0.855 0.385,1.197c-3.019,0 -5.697,-0.3 -8.032,-0.898c-2.336,-0.598 -4.287,-1.552 -5.854,-2.862c-1.566,-1.31 -2.763,-3.048 -3.589,-5.213c-0.826,-2.164 -1.239,-4.813 -1.239,-7.946c0,-5.811 1.182,-11.465 3.547,-16.962c2.364,-5.497 6.038,-10.354 11.022,-14.569c4.985,-4.216 11.365,-7.605 19.141,-10.169c7.776,-2.563 17.076,-3.845 27.899,-3.845c1.937,0 4.671,0.242 8.203,0.727c3.532,0.484 7.449,0.996 11.75,1.538c4.301,0.541 8.815,1.053 13.543,1.538c4.729,0.484 9.314,0.726 13.758,0.726c4.272,0 8.26,-0.285 11.963,-0.855c3.702,-0.569 6.779,-1.68 9.228,-3.332c-0.684,1.31 -1.339,2.592 -1.965,3.845c-0.627,1.253 -1.268,2.72 -1.923,4.401c-0.655,1.68 -1.324,3.688 -2.008,6.024c-0.684,2.336 -1.467,5.241 -2.35,8.716c-0.883,3.475 -1.851,7.633 -2.905,12.475c-1.054,4.843 -2.236,10.596 -3.546,17.261c1.88,-2.165 3.76,-3.916 5.639,-5.255c1.88,-1.339 3.718,-2.364 5.512,-3.076c1.794,-0.712 3.503,-1.196 5.127,-1.453c1.623,-0.256 3.147,-0.384 4.571,-0.384c2.792,0 5.369,0.37 7.734,1.111c2.364,0.74 4.414,1.908 6.152,3.503c1.737,1.595 3.09,3.646 4.059,6.152c0.968,2.507 1.452,5.498 1.452,8.972c0,2.336 -0.213,4.857 -0.64,7.563c-0.428,2.706 -0.94,5.468 -1.539,8.288c-0.598,2.82 -1.267,5.626 -2.008,8.417c-0.74,2.791 -1.41,5.469 -2.008,8.032c-0.598,2.564 -1.111,4.942 -1.538,7.135c-0.427,2.193 -0.641,4.116 -0.641,5.768c0,2.165 0.485,3.931 1.453,5.298c0.968,1.367 2.82,2.051 5.554,2.051c1.88,0 3.532,-0.371 4.956,-1.111c1.424,-0.741 2.706,-1.795 3.845,-3.162c1.14,-1.367 2.179,-3.005 3.119,-4.913c0.94,-1.908 1.866,-4.002 2.777,-6.281l7.349,0Z" style="fill-rule:nonzero;"/><path d="M286.454,958.83c-2.45,4.102 -5.255,8.09 -8.417,11.963c-3.161,3.874 -6.722,7.32 -10.681,10.34c-3.959,3.019 -8.345,5.454 -13.159,7.306c-4.814,1.851 -10.097,2.777 -15.851,2.777c-4.158,0 -7.918,-0.527 -11.279,-1.581c-3.361,-1.054 -6.238,-2.692 -8.631,-4.913c-2.392,-2.222 -4.229,-5.085 -5.511,-8.588c-1.282,-3.504 -1.923,-7.733 -1.923,-12.689c0,-3.361 0.342,-7.235 1.026,-11.621c0.683,-4.387 1.766,-8.887 3.247,-13.501c1.481,-4.615 3.446,-9.143 5.896,-13.587c2.449,-4.443 5.412,-8.417 8.887,-11.92c3.474,-3.503 7.548,-6.323 12.219,-8.459c4.671,-2.137 9.997,-3.205 15.979,-3.205c3.93,0 7.135,0.47 9.613,1.41c2.478,0.94 4.443,2.179 5.896,3.717c1.452,1.538 2.449,3.318 2.991,5.341c0.541,2.022 0.811,4.116 0.811,6.28c0,5.07 -1.111,9.784 -3.332,14.142c-2.222,4.358 -5.198,8.16 -8.93,11.408c-3.731,3.247 -8.018,5.867 -12.86,7.861c-4.842,1.994 -9.883,3.162 -15.124,3.503c-0.114,1.311 -0.214,2.55 -0.299,3.717c-0.086,1.168 -0.129,2.265 -0.129,3.29c0,2.962 0.271,5.398 0.812,7.306c0.541,1.908 1.339,3.404 2.393,4.486c1.054,1.082 2.364,1.837 3.93,2.265c1.567,0.427 3.404,0.64 5.512,0.64c3.475,0 6.622,-0.455 9.442,-1.367c2.82,-0.911 5.455,-2.164 7.904,-3.76c2.45,-1.595 4.771,-3.474 6.964,-5.639c2.193,-2.165 4.401,-4.472 6.623,-6.922l5.981,0Zm-47.766,-12.39c3.304,-0.228 6.494,-1.168 9.57,-2.82c3.076,-1.652 5.782,-3.802 8.118,-6.451c2.336,-2.649 4.201,-5.668 5.597,-9.058c1.395,-3.389 2.093,-6.907 2.093,-10.553c0,-2.164 -0.313,-3.902 -0.94,-5.212c-0.626,-1.31 -1.766,-1.965 -3.418,-1.965c-2.221,0 -4.4,1.068 -6.536,3.204c-2.137,2.136 -4.145,4.913 -6.025,8.331c-1.88,3.418 -3.546,7.278 -4.998,11.579c-1.453,4.301 -2.607,8.616 -3.461,12.945Z" style="fill-rule:nonzero;"/><path d="M378.825,923.711c-3.418,3.589 -7.833,6.636 -13.245,9.143c-5.412,2.506 -11.336,4.301 -17.773,5.383c-0.684,8.089 -2.236,15.381 -4.657,21.875c-2.421,6.494 -5.483,12.02 -9.186,16.577c-3.703,4.558 -7.947,8.061 -12.732,10.511c-4.785,2.449 -9.855,3.674 -15.21,3.674c-4.045,0 -7.79,-0.499 -11.237,-1.495c-3.446,-0.997 -6.408,-2.592 -8.886,-4.786c-2.478,-2.193 -4.415,-5.041 -5.811,-8.545c-1.396,-3.503 -2.093,-7.761 -2.093,-12.774c0,-3.418 0.356,-7.306 1.068,-11.664c0.712,-4.358 1.851,-8.844 3.418,-13.458c1.566,-4.615 3.588,-9.129 6.067,-13.544c2.478,-4.415 5.497,-8.36 9.057,-11.835c3.561,-3.475 7.676,-6.28 12.348,-8.416c4.671,-2.137 9.997,-3.205 15.979,-3.205c14.982,0 22.473,9.314 22.473,27.942l0,0.171c0.285,0.114 0.555,0.171 0.811,0.171c0.257,0 0.613,0 1.069,0c2.05,0 4.258,-0.299 6.622,-0.897c2.364,-0.598 4.742,-1.382 7.135,-2.35c2.392,-0.969 4.728,-2.094 7.007,-3.375c2.278,-1.282 4.358,-2.578 6.238,-3.888l1.538,4.785Zm-45.545,15.039c-1.823,-0.456 -3.062,-1.353 -3.717,-2.692c-0.655,-1.339 -0.983,-2.891 -0.983,-4.657c0,-2.449 0.499,-4.457 1.496,-6.024c0.997,-1.567 2.321,-2.72 3.973,-3.461c-0.114,-1.88 -0.313,-3.46 -0.598,-4.742c-0.285,-1.282 -0.684,-2.336 -1.196,-3.162c-0.513,-0.826 -1.154,-1.41 -1.923,-1.751c-0.769,-0.342 -1.752,-0.513 -2.948,-0.513c-2.108,0 -4.13,0.812 -6.067,2.435c-1.937,1.624 -3.774,3.774 -5.511,6.452c-1.738,2.677 -3.333,5.739 -4.785,9.185c-1.453,3.447 -2.692,6.993 -3.717,10.639c-1.026,3.646 -1.823,7.249 -2.393,10.809c-0.57,3.561 -0.854,6.793 -0.854,9.699c0,2.905 0.156,5.269 0.47,7.092c0.313,1.823 0.826,3.261 1.538,4.315c0.712,1.054 1.637,1.78 2.777,2.179c1.139,0.399 2.535,0.598 4.187,0.598c2.107,0 4.229,-0.94 6.366,-2.82c2.136,-1.879 4.115,-4.443 5.938,-7.69c1.823,-3.247 3.433,-7.092 4.828,-11.536c1.396,-4.443 2.436,-9.228 3.119,-14.355Z" style="fill-rule:nonzero;"/><path d="M411.381,958.83c-1.652,4.729 -3.489,8.83 -5.512,12.305c-2.022,3.475 -4.13,6.409 -6.323,8.801c-2.193,2.393 -4.443,4.33 -6.75,5.811c-2.308,1.481 -4.543,2.62 -6.708,3.418c-2.165,0.797 -4.23,1.339 -6.195,1.623c-1.966,0.285 -3.717,0.428 -5.255,0.428c-2.621,0 -5.07,-0.399 -7.349,-1.197c-2.279,-0.797 -4.258,-2.05 -5.939,-3.759c-1.68,-1.709 -3.005,-3.874 -3.973,-6.495c-0.969,-2.62 -1.453,-5.782 -1.453,-9.484c0,-1.595 0.114,-3.347 0.342,-5.256c0.228,-1.908 0.57,-3.973 1.025,-6.195l18.714,-87.67l25.891,-3.504l-20.081,94.507c-0.284,0.968 -0.47,1.923 -0.555,2.862c-0.086,0.94 -0.128,1.866 -0.128,2.778c0,2.449 0.569,4.144 1.709,5.084c1.139,0.94 2.933,1.41 5.383,1.41c1.709,0 3.375,-0.385 4.999,-1.154c1.623,-0.769 3.119,-1.837 4.486,-3.204c1.367,-1.367 2.592,-3.005 3.674,-4.914c1.083,-1.908 1.966,-3.973 2.649,-6.195l7.349,0Z" style="fill-rule:nonzero;"/><path d="M502.384,923.711c-3.418,3.589 -7.833,6.636 -13.244,9.143c-5.412,2.506 -11.337,4.301 -17.774,5.383c-0.683,8.089 -2.236,15.381 -4.657,21.875c-2.421,6.494 -5.483,12.02 -9.186,16.577c-3.702,4.558 -7.946,8.061 -12.732,10.511c-4.785,2.449 -9.855,3.674 -15.21,3.674c-4.044,0 -7.79,-0.499 -11.236,-1.495c-3.447,-0.997 -6.409,-2.592 -8.887,-4.786c-2.478,-2.193 -4.415,-5.041 -5.81,-8.545c-1.396,-3.503 -2.094,-7.761 -2.094,-12.774c0,-3.418 0.356,-7.306 1.068,-11.664c0.712,-4.358 1.852,-8.844 3.418,-13.458c1.567,-4.615 3.589,-9.129 6.067,-13.544c2.478,-4.415 5.497,-8.36 9.058,-11.835c3.56,-3.475 7.676,-6.28 12.347,-8.416c4.671,-2.137 9.998,-3.205 15.979,-3.205c14.982,0 22.473,9.314 22.473,27.942l0,0.171c0.285,0.114 0.556,0.171 0.812,0.171c0.256,0 0.612,0 1.068,0c2.051,0 4.258,-0.299 6.622,-0.897c2.365,-0.598 4.743,-1.382 7.135,-2.35c2.393,-0.969 4.729,-2.094 7.007,-3.375c2.279,-1.282 4.358,-2.578 6.238,-3.888l1.538,4.785Zm-45.544,15.039c-1.823,-0.456 -3.062,-1.353 -3.717,-2.692c-0.655,-1.339 -0.983,-2.891 -0.983,-4.657c0,-2.449 0.499,-4.457 1.495,-6.024c0.997,-1.567 2.322,-2.72 3.974,-3.461c-0.114,-1.88 -0.314,-3.46 -0.598,-4.742c-0.285,-1.282 -0.684,-2.336 -1.197,-3.162c-0.512,-0.826 -1.153,-1.41 -1.922,-1.751c-0.769,-0.342 -1.752,-0.513 -2.948,-0.513c-2.108,0 -4.13,0.812 -6.067,2.435c-1.937,1.624 -3.774,3.774 -5.512,6.452c-1.737,2.677 -3.332,5.739 -4.785,9.185c-1.452,3.447 -2.691,6.993 -3.717,10.639c-1.025,3.646 -1.823,7.249 -2.392,10.809c-0.57,3.561 -0.855,6.793 -0.855,9.699c0,2.905 0.157,5.269 0.47,7.092c0.313,1.823 0.826,3.261 1.538,4.315c0.712,1.054 1.638,1.78 2.777,2.179c1.14,0.399 2.535,0.598 4.187,0.598c2.108,0 4.23,-0.94 6.366,-2.82c2.136,-1.879 4.116,-4.443 5.939,-7.69c1.823,-3.247 3.432,-7.092 4.828,-11.536c1.396,-4.443 2.435,-9.228 3.119,-14.355Z" style="fill-rule:nonzero;"/><path d="M543.314,1004.2c-1.253,6.266 -3.062,11.336 -5.426,15.21c-2.364,3.874 -4.998,6.893 -7.904,9.058c-2.905,2.164 -5.938,3.617 -9.1,4.357c-3.162,0.741 -6.195,1.111 -9.1,1.111c-2.678,0 -5.199,-0.356 -7.563,-1.068c-2.364,-0.712 -4.429,-1.766 -6.195,-3.161c-1.766,-1.396 -3.176,-3.162 -4.229,-5.298c-1.054,-2.137 -1.581,-4.629 -1.581,-7.477c0,-3.646 0.868,-6.865 2.606,-9.656c1.737,-2.791 3.973,-5.227 6.708,-7.306c2.734,-2.079 5.796,-3.859 9.185,-5.34c3.39,-1.481 6.737,-2.735 10.041,-3.76l2.136,-9.229c-2.563,2.735 -5.568,5.013 -9.015,6.836c-3.446,1.823 -7.448,2.735 -12.006,2.735c-3.019,0 -5.924,-0.485 -8.715,-1.453c-2.792,-0.968 -5.27,-2.563 -7.434,-4.785c-2.165,-2.222 -3.903,-5.127 -5.213,-8.716c-1.31,-3.589 -1.965,-7.975 -1.965,-13.159c0,-3.988 0.399,-8.26 1.196,-12.818c0.798,-4.557 2.022,-9.114 3.674,-13.671c1.652,-4.558 3.718,-8.93 6.196,-13.117c2.478,-4.187 5.383,-7.89 8.715,-11.108c3.333,-3.219 7.107,-5.782 11.322,-7.691c4.216,-1.908 8.859,-2.862 13.929,-2.862c4.956,0 8.559,0.854 10.809,2.563c2.25,1.709 3.375,3.817 3.375,6.324l0,1.025l1.88,-9.058l25.208,0l-17.347,81.177c2.678,-0.911 5.099,-2.008 7.264,-3.29c2.164,-1.281 4.144,-2.905 5.938,-4.87c1.795,-1.966 3.418,-4.316 4.871,-7.05c1.453,-2.734 2.777,-6.01 3.973,-9.827l7.349,0c-1.766,5.811 -3.86,10.653 -6.281,14.527c-2.421,3.873 -4.998,7.049 -7.733,9.527c-2.734,2.478 -5.554,4.373 -8.459,5.683c-2.906,1.31 -5.725,2.307 -8.46,2.99l-2.649,12.647Zm-7.177,-85.022c0,-0.513 -0.114,-1.139 -0.342,-1.88c-0.228,-0.74 -0.613,-1.453 -1.154,-2.136c-0.541,-0.684 -1.267,-1.268 -2.179,-1.752c-0.911,-0.484 -2.079,-0.726 -3.503,-0.726c-2.45,0 -4.771,0.797 -6.964,2.392c-2.193,1.595 -4.201,3.717 -6.024,6.366c-1.823,2.649 -3.447,5.654 -4.871,9.015c-1.424,3.361 -2.635,6.822 -3.632,10.382c-0.996,3.561 -1.751,7.064 -2.264,10.511c-0.513,3.446 -0.769,6.536 -0.769,9.271c0,3.361 0.313,5.953 0.94,7.776c0.627,1.823 1.381,3.176 2.264,4.059c0.883,0.883 1.837,1.409 2.863,1.58c1.025,0.171 1.937,0.257 2.734,0.257c1.197,0 2.478,-0.299 3.845,-0.897c1.368,-0.599 2.721,-1.467 4.059,-2.607c1.339,-1.139 2.55,-2.563 3.632,-4.272c1.082,-1.709 1.908,-3.674 2.478,-5.896l8.887,-41.443Zm-17.176,80.493c-2.278,0.855 -4.443,1.78 -6.494,2.777c-2.051,0.997 -3.859,2.094 -5.426,3.29c-1.566,1.196 -2.82,2.521 -3.76,3.973c-0.94,1.453 -1.41,3.062 -1.41,4.828c0,0.627 0.114,1.282 0.342,1.966c0.228,0.683 0.584,1.31 1.068,1.88c0.485,0.569 1.097,1.025 1.838,1.367c0.74,0.342 1.623,0.512 2.648,0.512c1.823,0 3.689,-1.267 5.597,-3.802c1.909,-2.535 3.433,-6.451 4.572,-11.749l1.025,-5.042Z" style="fill-rule:nonzero;"/><path d="M608.256,981.133c-1.88,2.164 -3.76,3.902 -5.64,5.212c-1.88,1.31 -3.731,2.321 -5.554,3.034c-1.823,0.712 -3.589,1.196 -5.298,1.452c-1.709,0.256 -3.332,0.385 -4.871,0.385c-2.62,0 -5.07,-0.399 -7.348,-1.197c-2.279,-0.797 -4.258,-2.05 -5.939,-3.759c-1.68,-1.709 -3.005,-3.874 -3.973,-6.495c-0.969,-2.62 -1.453,-5.782 -1.453,-9.484c0,-1.595 0.114,-3.347 0.342,-5.256c0.228,-1.908 0.57,-3.973 1.025,-6.195l11.878,-56.14l25.207,0l-12.561,59.473c-0.342,1.481 -0.512,2.962 -0.512,4.443c0,1.026 0.085,1.994 0.256,2.906c0.171,0.911 0.456,1.723 0.854,2.435c0.399,0.712 0.926,1.282 1.581,1.709c0.655,0.427 1.496,0.641 2.521,0.641c1.709,0 3.275,-0.385 4.7,-1.154c1.424,-0.769 2.72,-1.837 3.888,-3.204c1.167,-1.367 2.193,-3.005 3.076,-4.914c0.883,-1.908 1.666,-3.973 2.35,-6.195l11.877,-56.14l25.378,0l-21.362,101.514c-1.253,6.266 -3.09,11.336 -5.511,15.21c-2.421,3.874 -5.099,6.893 -8.033,9.058c-2.933,2.164 -6.009,3.617 -9.228,4.357c-3.219,0.741 -6.252,1.111 -9.1,1.111c-2.621,0 -5.17,-0.455 -7.648,-1.367c-2.478,-0.911 -4.671,-2.193 -6.58,-3.845c-1.908,-1.652 -3.446,-3.632 -4.614,-5.939c-1.168,-2.307 -1.752,-4.885 -1.752,-7.733c0,-4.102 0.784,-7.548 2.35,-10.339c1.567,-2.792 3.717,-5.156 6.452,-7.093c2.734,-1.936 5.938,-3.574 9.613,-4.913c3.674,-1.339 7.619,-2.635 11.834,-3.888l1.795,-7.69Zm-2.991,13.244c-2.734,0.912 -5.298,1.937 -7.69,3.076c-2.393,1.14 -4.458,2.436 -6.195,3.888c-1.738,1.453 -3.105,3.105 -4.102,4.956c-0.997,1.852 -1.495,3.945 -1.495,6.281c0,0.684 0.171,1.367 0.512,2.051c0.342,0.683 0.826,1.296 1.453,1.837c0.627,0.541 1.367,0.997 2.222,1.367c0.854,0.37 1.794,0.556 2.819,0.556c0.855,0 1.781,-0.214 2.778,-0.641c0.996,-0.428 1.965,-1.168 2.905,-2.222c0.94,-1.054 1.809,-2.464 2.606,-4.23c0.798,-1.766 1.481,-3.959 2.051,-6.579l2.136,-10.34Z" style="fill-rule:nonzero;"/><path d="M703.361,990.19l25.207,-116.894c-3.361,0.114 -6.437,0.755 -9.228,1.922c-2.792,1.168 -5.184,3.119 -7.178,5.854c-1.994,2.734 -3.546,6.408 -4.657,11.023c-1.111,4.614 -1.666,10.424 -1.666,17.431c0,2.222 0.128,4.031 0.384,5.426c0.257,1.396 0.541,2.507 0.855,3.333c0.313,0.826 0.598,1.467 0.854,1.922c0.257,0.456 0.385,0.855 0.385,1.197c-3.019,0 -5.697,-0.299 -8.032,-0.898c-2.336,-0.598 -4.301,-1.552 -5.896,-2.862c-1.595,-1.31 -2.806,-3.048 -3.632,-5.213c-0.826,-2.164 -1.239,-4.842 -1.239,-8.032c0,-5.81 1.082,-11.45 3.247,-16.919c2.165,-5.468 5.625,-10.311 10.382,-14.526c4.757,-4.216 10.923,-7.605 18.5,-10.169c7.576,-2.563 16.776,-3.845 27.6,-3.845c1.766,0 3.746,0.114 5.939,0.342c2.193,0.228 4.529,0.47 7.007,0.726c2.478,0.257 5.084,0.499 7.818,0.727c2.735,0.228 5.497,0.342 8.289,0.342c2.734,0 5.426,-0.157 8.075,-0.47c2.649,-0.314 5.198,-0.869 7.647,-1.667c-0.569,1.823 -1.125,3.803 -1.666,5.939c-0.541,2.136 -1.353,4.201 -2.435,6.195c-1.083,1.994 -2.592,3.803 -4.529,5.426c-1.937,1.624 -4.586,2.777 -7.947,3.461c-4.158,0 -8.26,-0.314 -12.304,-0.94c-4.045,-0.627 -8.118,-1.424 -12.22,-2.393l-7.348,34.778l25.549,0l-2.82,12.988l-25.549,0l-14.185,65.796l-25.207,0Z" style="fill-rule:nonzero;"/><path d="M866.654,923.711c-3.418,3.589 -7.833,6.636 -13.244,9.143c-5.412,2.506 -11.337,4.301 -17.774,5.383c-0.683,8.089 -2.236,15.381 -4.657,21.875c-2.421,6.494 -5.483,12.02 -9.186,16.577c-3.702,4.558 -7.946,8.061 -12.732,10.511c-4.785,2.449 -9.855,3.674 -15.21,3.674c-4.044,0 -7.79,-0.499 -11.236,-1.495c-3.447,-0.997 -6.409,-2.592 -8.887,-4.786c-2.478,-2.193 -4.415,-5.041 -5.81,-8.545c-1.396,-3.503 -2.094,-7.761 -2.094,-12.774c0,-3.418 0.356,-7.306 1.068,-11.664c0.712,-4.358 1.852,-8.844 3.418,-13.458c1.567,-4.615 3.589,-9.129 6.067,-13.544c2.478,-4.415 5.497,-8.36 9.058,-11.835c3.56,-3.475 7.676,-6.28 12.347,-8.416c4.671,-2.137 9.998,-3.205 15.979,-3.205c14.982,0 22.473,9.314 22.473,27.942l0,0.171c0.285,0.114 0.556,0.171 0.812,0.171c0.256,0 0.612,0 1.068,0c2.051,0 4.258,-0.299 6.622,-0.897c2.365,-0.598 4.743,-1.382 7.135,-2.35c2.393,-0.969 4.729,-2.094 7.007,-3.375c2.279,-1.282 4.358,-2.578 6.238,-3.888l1.538,4.785Zm-45.544,15.039c-1.823,-0.456 -3.062,-1.353 -3.717,-2.692c-0.655,-1.339 -0.983,-2.891 -0.983,-4.657c0,-2.449 0.499,-4.457 1.495,-6.024c0.997,-1.567 2.322,-2.72 3.974,-3.461c-0.114,-1.88 -0.313,-3.46 -0.598,-4.742c-0.285,-1.282 -0.684,-2.336 -1.197,-3.162c-0.512,-0.826 -1.153,-1.41 -1.922,-1.751c-0.769,-0.342 -1.752,-0.513 -2.948,-0.513c-2.108,0 -4.13,0.812 -6.067,2.435c-1.937,1.624 -3.774,3.774 -5.512,6.452c-1.737,2.677 -3.332,5.739 -4.785,9.185c-1.452,3.447 -2.691,6.993 -3.717,10.639c-1.025,3.646 -1.823,7.249 -2.392,10.809c-0.57,3.561 -0.855,6.793 -0.855,9.699c0,2.905 0.157,5.269 0.47,7.092c0.313,1.823 0.826,3.261 1.538,4.315c0.712,1.054 1.638,1.78 2.777,2.179c1.14,0.399 2.535,0.598 4.187,0.598c2.108,0 4.23,-0.94 6.366,-2.82c2.137,-1.879 4.116,-4.443 5.939,-7.69c1.823,-3.247 3.432,-7.092 4.828,-11.536c1.396,-4.443 2.435,-9.228 3.119,-14.355Z" style="fill-rule:nonzero;"/><path d="M838.456,990.19l18.542,-87.5l25.208,0l-2.222,10.852c1.538,-1.367 3.105,-2.706 4.7,-4.016c1.595,-1.31 3.261,-2.464 4.999,-3.46c1.737,-0.997 3.546,-1.809 5.426,-2.436c1.88,-0.626 3.873,-0.94 5.981,-0.94c1.994,0 3.746,0.371 5.255,1.111c1.51,0.741 2.777,1.709 3.803,2.905c1.025,1.197 1.794,2.592 2.307,4.187c0.513,1.595 0.769,3.247 0.769,4.956c0,1.539 -0.256,3.062 -0.769,4.572c-0.513,1.51 -1.296,2.863 -2.35,4.059c-1.054,1.196 -2.378,2.179 -3.973,2.948c-1.595,0.769 -3.447,1.153 -5.554,1.153c-1.652,0 -2.92,-0.284 -3.803,-0.854c-0.883,-0.57 -1.552,-1.282 -2.008,-2.136c-0.456,-0.855 -0.783,-1.781 -0.983,-2.777c-0.199,-0.997 -0.413,-1.923 -0.641,-2.778c-0.227,-0.854 -0.526,-1.566 -0.897,-2.136c-0.37,-0.569 -0.982,-0.854 -1.837,-0.854c-2.677,0 -4.927,0.612 -6.75,1.837c-1.823,1.225 -3.817,2.834 -5.982,4.828l-14.014,66.479l-25.207,0Z" style="fill-rule:nonzero;"/><path d="M1017.3,990.19l13.416,-63.488c-4.444,-2.051 -8.502,-3.532 -12.177,-4.444c-3.674,-0.911 -7.42,-1.538 -11.236,-1.88c-3.304,7.121 -6.338,14.441 -9.101,21.961c-2.763,7.519 -5.155,14.825 -7.177,21.917c-2.023,7.093 -3.604,13.744 -4.743,19.953c-1.139,6.209 -1.709,11.592 -1.709,16.15c0,2.791 0.242,4.913 0.726,6.366c0.485,1.452 1.04,2.577 1.667,3.375c-2.336,0 -4.857,-0.114 -7.563,-0.342c-2.705,-0.228 -5.24,-0.926 -7.605,-2.093c-2.364,-1.168 -4.329,-3.005 -5.896,-5.512c-1.566,-2.506 -2.349,-6.038 -2.349,-10.596c0,-3.873 0.612,-8.516 1.837,-13.928c1.225,-5.412 2.976,-11.236 5.255,-17.474c2.279,-6.238 4.984,-12.761 8.118,-19.568c3.133,-6.807 6.636,-13.544 10.51,-20.209c-5.526,0.342 -10.04,1.182 -13.544,2.521c-3.503,1.339 -5.825,3.518 -6.964,6.537c0.456,0 0.954,0.584 1.495,1.752c0.542,1.167 0.812,2.406 0.812,3.717c0,2.107 -0.954,3.774 -2.862,4.998c-1.909,1.225 -4.23,1.838 -6.965,1.838c-1.538,0 -2.962,-0.214 -4.272,-0.641c-1.31,-0.428 -2.45,-1.054 -3.418,-1.88c-0.968,-0.826 -1.737,-1.88 -2.307,-3.162c-0.57,-1.282 -0.855,-2.777 -0.855,-4.486c0,-2.962 0.898,-5.753 2.692,-8.374c1.795,-2.62 4.287,-4.899 7.477,-6.836c3.19,-1.937 6.964,-3.475 11.322,-4.614c4.358,-1.139 9.1,-1.709 14.227,-1.709c2.393,0 5.44,0.171 9.143,0.513c4.444,-7.007 9.143,-13.63 14.099,-19.867c4.956,-6.238 10.055,-11.707 15.296,-16.407c5.241,-4.699 10.51,-8.431 15.808,-11.193c5.298,-2.763 10.51,-4.145 15.637,-4.145c2.051,0 4.344,0.171 6.879,0.513c2.535,0.342 4.856,0.997 6.964,1.965l-27.429,128.772l-25.208,0Zm25.208,-118.86c-2.621,1.425 -5.284,3.461 -7.99,6.11c-2.706,2.649 -5.383,5.782 -8.032,9.399c-2.649,3.618 -5.284,7.634 -7.904,12.049c-2.621,4.415 -5.156,9.072 -7.605,13.971c3.532,0.683 7.121,1.524 10.767,2.52c3.645,0.997 7.177,2.179 10.595,3.547l10.169,-47.596Z" style="fill-rule:nonzero;"/><path d="M1119.84,958.83c-1.652,4.729 -3.489,8.83 -5.511,12.305c-2.023,3.475 -4.13,6.409 -6.323,8.801c-2.194,2.393 -4.444,4.33 -6.751,5.811c-2.307,1.481 -4.543,2.62 -6.708,3.418c-2.164,0.797 -4.229,1.339 -6.195,1.623c-1.965,0.285 -3.717,0.428 -5.255,0.428c-2.62,0 -5.07,-0.399 -7.349,-1.197c-2.278,-0.797 -4.258,-2.05 -5.938,-3.759c-1.681,-1.709 -3.005,-3.874 -3.974,-6.495c-0.968,-2.62 -1.452,-5.782 -1.452,-9.484c0,-1.595 0.114,-3.347 0.341,-5.256c0.228,-1.908 0.57,-3.973 1.026,-6.195l18.713,-87.67l25.891,-3.504l-20.08,94.507c-0.285,0.968 -0.47,1.923 -0.556,2.862c-0.085,0.94 -0.128,1.866 -0.128,2.778c0,2.449 0.57,4.144 1.709,5.084c1.14,0.94 2.934,1.41 5.384,1.41c1.708,0 3.375,-0.385 4.998,-1.154c1.624,-0.769 3.119,-1.837 4.486,-3.204c1.368,-1.367 2.592,-3.005 3.675,-4.914c1.082,-1.908 1.965,-3.973 2.649,-6.195l7.348,0Z" style="fill-rule:nonzero;"/><path d="M1130.86,870.818l25.891,-3.504l-20.08,94.507c-0.285,0.969 -0.484,1.866 -0.598,2.692c-0.114,0.826 -0.171,1.638 -0.171,2.435c0,1.994 0.512,3.66 1.538,4.999c1.025,1.339 2.905,2.008 5.639,2.008c1.652,0 2.849,-0.114 3.589,-0.342c0.741,-0.228 1.424,-0.484 2.051,-0.769c-0.228,3.133 -0.926,5.853 -2.093,8.16c-1.168,2.308 -2.635,4.216 -4.401,5.726c-1.766,1.509 -3.76,2.634 -5.982,3.375c-2.221,0.74 -4.471,1.111 -6.75,1.111c-2.62,0 -5.07,-0.413 -7.349,-1.239c-2.278,-0.826 -4.258,-2.108 -5.938,-3.846c-1.681,-1.737 -3.005,-3.944 -3.974,-6.622c-0.968,-2.677 -1.452,-5.896 -1.452,-9.656c0,-1.538 0.114,-3.261 0.341,-5.169c0.228,-1.909 0.57,-3.974 1.026,-6.195l18.713,-87.671Z" style="fill-rule:nonzero;"/></g></svg>