<?xml version="1.0" encoding="UTF-8" standalone="no"?><!DOCTYPE svg PUBLIC "-//W3C//DTD SVG 1.1//EN" "http://www.w3.org/Graphics/SVG/1.1/DTD/svg11.dtd"><svg width="100%" height="100%" viewBox="0 0 100 100" version="1.1" xmlns="http://www.w3.org/2000/svg" xmlns:xlink="http://www.w3.org/1999/xlink" xml:space="preserve" xmlns:serif="http://www.serif.com/" style="fill-rule:evenodd;clip-rule:evenodd;stroke-linejoin:round;stroke-miterlimit:1.41421;"><rect id="facebook" x="0" y="0" width="100" height="100" style="fill:none;"/><clipPath id="_clip1"><rect id="facebook1" serif:id="facebook" x="0" y="0" width="100" height="100"/></clipPath><g clip-path="url(#_clip1)"><path d="M94.482,0l-88.964,0c-3.027,0 -5.518,2.491 -5.518,5.518l0,88.964c0,3.027 2.491,5.518 5.518,5.518l47.903,0l0,-38.675l-12.991,0l0,-15.132l12.991,0l0,-11.105c0,-12.921 7.895,-19.948 19.404,-19.948c3.89,-0.01 7.779,0.186 11.649,0.588l0,13.465l-7.948,0c-6.272,0 -7.482,2.974 -7.482,7.351l0,9.649l14.991,0l-1.956,15.132l-13.035,0l0,38.675l25.438,0c3.027,0 5.518,-2.491 5.518,-5.518l0,-88.964c0,-3.027 -2.491,-5.518 -5.518,-5.518Z" style="fill:#4267b2;fill-rule:nonzero;"/></g></svg>