<?xml version="1.0" encoding="UTF-8" standalone="no"?><!DOCTYPE svg PUBLIC "-//W3C//DTD SVG 1.1//EN" "http://www.w3.org/Graphics/SVG/1.1/DTD/svg11.dtd"><svg width="100%" height="100%" viewBox="0 0 325 100" version="1.1" xmlns="http://www.w3.org/2000/svg" xmlns:xlink="http://www.w3.org/1999/xlink" xml:space="preserve" xmlns:serif="http://www.serif.com/" style="fill-rule:evenodd;clip-rule:evenodd;stroke-linejoin:round;stroke-miterlimit:1.41421;"><rect id="seemore" x="0" y="0" width="325" height="100" style="fill:none;"/><clipPath id="_clip1"><rect x="0" y="0" width="325" height="100"/></clipPath><g clip-path="url(#_clip1)"><path d="M243.875,2l-241.875,0l0,93l241.875,0l80.625,-46.5l-80.625,-46.5Z" style="fill-opacity:0.25098;"/><path d="M324.5,48.5l-80.625,46.5l-241.875,0l0,-93l241.875,0l80.625,46.5Zm-319.5,-43.5l0,87l238.072,0l75.423,-43.5l-75.423,-43.5l-238.072,0Z" style="fill-opacity:0.25098;"/><path d="M241.875,0l-241.875,0l0,93l241.875,0l80.625,-46.5l-80.625,-46.5Z" style="fill:#fff;"/><path d="M322.5,46.5l-80.625,46.5l-241.875,0l0,-93l241.875,0l80.625,46.5Zm-319.5,-43.5l0,87l238.072,0l75.423,-43.5l-75.423,-43.5l-238.072,0Z"/><text x="21.725px" y="66.265px" style="font-family:'EBGaramond08-Regular', 'EB Garamond', serif;font-size:67px;fill:#1f386b;">See More</text></g></svg>