<?xml version="1.0" encoding="UTF-8" standalone="no"?><!DOCTYPE svg PUBLIC "-//W3C//DTD SVG 1.1//EN" "http://www.w3.org/Graphics/SVG/1.1/DTD/svg11.dtd"><svg width="100%" height="100%" viewBox="0 0 100 100" version="1.1" xmlns="http://www.w3.org/2000/svg" xmlns:xlink="http://www.w3.org/1999/xlink" xml:space="preserve" xmlns:serif="http://www.serif.com/" style="fill-rule:evenodd;clip-rule:evenodd;stroke-linejoin:round;stroke-miterlimit:1.41421;"><rect id="twitter" x="0" y="0" width="100" height="100" style="fill:none;"/><clipPath id="_clip1"><rect id="twitter1" serif:id="twitter" x="0" y="0" width="100" height="100"/></clipPath><g clip-path="url(#_clip1)"><path d="M31.449,90.635c37.738,0 58.375,-31.264 58.375,-58.374c0,-0.888 -0.018,-1.773 -0.059,-2.652c4.005,-2.896 7.488,-6.509 10.235,-10.623c-3.676,1.633 -7.632,2.733 -11.782,3.229c4.236,-2.539 7.488,-6.558 9.021,-11.348c-3.965,2.35 -8.354,4.059 -13.027,4.979c-3.744,-3.987 -9.076,-6.481 -14.976,-6.481c-11.331,0 -20.519,9.188 -20.519,20.514c0,1.611 0.18,3.176 0.532,4.678c-17.051,-0.857 -32.171,-9.021 -42.289,-21.435c-1.764,3.031 -2.779,6.554 -2.779,10.311c0,7.119 3.623,13.402 9.13,17.078c-3.365,-0.103 -6.527,-1.028 -9.292,-2.566c-0.005,0.085 -0.005,0.171 -0.005,0.261c0,9.938 7.074,18.233 16.46,20.114c-1.722,0.469 -3.536,0.722 -5.408,0.722c-1.322,0 -2.607,-0.131 -3.857,-0.37c2.612,8.151 10.186,14.083 19.167,14.25c-7.024,5.503 -15.869,8.782 -25.482,8.782c-1.656,0 -3.288,-0.095 -4.894,-0.284c9.08,5.819 19.861,9.215 31.449,9.215Z" style="fill:#419bd6;fill-rule:nonzero;"/></g></svg>